<?xml version="1.0" encoding="UTF-8"?>
<svg xmlns="http://www.w3.org/2000/svg" xmlns:xlink="http://www.w3.org/1999/xlink" fill-rule="evenodd" clip-rule="evenodd" image-rendering="optimizeQuality" shape-rendering="geometricPrecision" text-rendering="geometricPrecision" viewBox="0 0 660 600">
  <defs>
    <style>.fil18,.fil5,.fil8{fill:#002e42;fill-rule:nonzero}.fil5,.fil8{fill:#2db677}.fil5{fill:#131313}.fil16,.fil2,.fil20{fill:#19292f;fill-rule:nonzero}.fil16,.fil20{fill:#242424}.fil20{fill:#303030}.fil10,.fil15,.fil23{fill:#5b5b5b;fill-rule:nonzero}.fil10,.fil15{fill:#615549}.fil10{fill:#d4d6d8}.fil6,.fil7,.fil9{fill:#edb38c;fill-rule:nonzero}.fil6,.fil9{fill:#ffc8a3}.fil9{fill:#fff}</style>
    <linearGradient id="id0" x1="578.89" x2="5.58" y1="305.21" y2="305.21" gradientUnits="userSpaceOnUse">
      <stop offset="0" stop-color="#ececec"></stop>
      <stop offset="1" stop-color="#f6f6f7"></stop>
    </linearGradient>
    <linearGradient id="id1" x1="133.02" x2="618.14" y1="430.39" y2="430.39" gradientUnits="userSpaceOnUse" xlink:href="#id0"></linearGradient>
  </defs>
  <g fill-rule="nonzero">
    <path fill="url(#id0)" d="M410.91 101.45c129.61 0 234.68 105.07 234.68 234.67 0 129.61-105.07 234.67-234.68 234.67-16.25 0-32.12-1.65-47.44-4.8a196.99 196.99 0 0 1-43.33 4.8c-78.84 0-146.83-46.42-178.15-113.41-59.87-24.11-102.14-82.73-102.14-151.23 0-32.36 9.44-62.51 25.71-87.86-15.77-13.94-25.71-34.31-25.71-57 0-42 34.05-76.05 76.05-76.05 9.2 0 18.01 1.63 26.17 4.62 14.71-29.75 45.37-50.22 80.82-50.22 47.47 0 86.37 36.7 89.86 83.28 29.86-13.77 63.11-21.47 98.16-21.47zM95.4 463.18c4.79 0 8.68-3.89 8.68-8.68 0-4.8-3.89-8.68-8.68-8.68-4.8 0-8.68 3.88-8.68 8.68 0 4.79 3.88 8.68 8.68 8.68zm26.37 37.13c10.86 0 19.67-8.81 19.67-19.67 0-10.87-8.81-19.68-19.67-19.68-10.87 0-19.68 8.81-19.68 19.68 0 10.86 8.81 19.67 19.68 19.67zm28.57 18.28c5.89 0 10.67-4.77 10.67-10.67 0-5.89-4.78-10.67-10.67-10.67s-10.67 4.78-10.67 10.67c0 5.9 4.78 10.67 10.67 10.67zM26.88 247.62c11.75 0 21.29-9.53 21.29-21.29s-9.54-21.29-21.29-21.29c-11.76 0-21.3 9.53-21.3 21.29s9.54 21.29 21.3 21.29zm-3.16 35.83c5.93 0 10.74-4.81 10.74-10.74 0-5.93-4.81-10.73-10.74-10.73-5.93 0-10.73 4.8-10.73 10.73 0 5.93 4.8 10.74 10.73 10.74zm111.8-211.49c8.45 0 15.3-6.85 15.3-15.3 0-8.45-6.85-15.3-15.3-15.3-8.45 0-15.3 6.85-15.3 15.3 0 8.45 6.85 15.3 15.3 15.3zm30.09-26.25c4.56 0 8.25-3.69 8.25-8.25 0-4.56-3.69-8.25-8.25-8.25-4.56 0-8.25 3.69-8.25 8.25 0 4.56 3.69 8.25 8.25 8.25zm373.44 80.23c5.06-.2 9-4.45 8.8-9.51-.19-5.06-4.45-9-9.5-8.8-5.06.19-9 4.44-8.81 9.5.2 5.06 4.45 9 9.51 8.81zm-34.65-20.53c14.07-.54 25.03-12.38 24.49-26.45-.53-14.07-12.38-25.04-26.45-24.5-14.07.54-25.04 12.39-24.5 26.45.54 14.07 12.39 25.04 26.46 24.5zm-60.14-14.06c9.56-.37 17.01-8.41 16.64-17.97-.37-9.55-8.41-17-17.97-16.64-9.55.37-17 8.41-16.63 17.97.36 9.55 8.41 17.01 17.96 16.64z"></path>
    <path fill="url(#id1)" d="M641.04 289.98c2.97 14.92 4.55 30.35 4.55 46.14 0 129.61-105.07 234.67-234.67 234.67-16.26 0-32.13-1.65-47.45-4.8a196.99 196.99 0 0 1-43.33 4.8c-78.84 0-146.83-46.42-178.15-113.41-56.21-142.11 165.78-229.92 271.62-89.34 114.86 152.57 239.17.3 227.43-78.06z"></path>
  </g>
  <path d="M300.34 408.41c15.5 4.45 28.47 14.6 42.66 21.85 6.53 3.34 13.71 6.42 21.12 6.91 2.65.17 5.89.13 8.84-.59-.77.09-1.54.08-2.31-.02.01.05.01.11.02.16-.15-.07-.32-.15-.5-.24-3.45-.63-6.91-2.96-9.87-5.6-19.08-11.25-55.82-33.91-66.81-37.28-5.69 2.97-10.27 7.97-13.73 13.4 6.85-1.04 13.82-.53 20.58 1.41zM520.11 510.59c-2.53-7.83-4.59-15.65-6.66-23.61-3.64-14.05-9.48-27.06-16.46-39.76-6.69-12.16-14.36-23.91-23.61-34.29-8.53-9.58-18.29-18.52-30.44-23.17-5.4-2.07-11-3.04-16.74-3.48-3.55-.27-10.56-1-12.19 3.25-.16.41-.41.73-.7.97.07.06.14.13.21.2.61.57 1.19 1.16 1.81 1.72.88.74 66.79 41.77 66.99 41.89 4.93 21.4 32.82 87.36 36.96 89.57.94-1.71 2.1-3.29 3.42-4.75-.78-2.87-1.68-5.71-2.59-8.54z" class="fil2"></path>
  <path fill="#192f38" fill-rule="nonzero" d="M556.46 502.91c-10.37-22.69-37.79-86.55-40.39-91.84-3-6.1-62.33-53.82-71.89-59.86-2.36-9.78-.09-27.65-12.25-28.05-.76-.15-1.58-.22-2.44-.21-4.32.08-75.95 7.73-76.38 10.16-.03.23-.07.45-.11.67-.96.95-1.66 2.29-1.86 4.04-1.68 14.72.18 33.7 12.67 43.56.96.75 1.96 1.43 2.99 2.03-.04.65-.08 1.3-.11 1.95-.28 5.9.15 11.81.56 17.7.4 5.71.94 11.4 1.52 17.09.42 4.18.86 8.36 1.37 12.53.17 1.36.33 2.71.53 4.04-9.27-4.42-63.42-38.9-77.18-43.12-6.63 3.46-11.77 9.69-15.37 16.13-2.26 4.07-4 8.43-4.98 12.99-.78 3.63-.53 7.28-.23 10.93 17.06 8.35 81.49 34.74 85.9 36.99 10.2 5.2 20.81 10.26 32.55 6.85 10.58-3.07 17.92-11.53 21.24-21.83 2.47-7.67 2.46-15.67 2.31-23.6-.19-9.45-.55-18.9-1.08-28.34-.26-4.53-.57-9.07-.91-13.6.2.2.39.39.6.58.61.57 1.19 1.16 1.81 1.72.88.74 66.79 41.77 66.99 41.89 4.98 21.57 33.3 88.48 37.07 89.63 4.04 1.23 41.08-12.25 37.07-21.03z"></path>
  <path d="M431.93 323.16c-.76-.15-1.58-.22-2.44-.21-4.32.08-75.95 7.73-76.38 10.16-.03.23-.07.45-.11.67-.96.95-1.66 2.29-1.86 4.04-1.68 14.72.18 33.7 12.67 43.56.96.75 1.96 1.43 2.99 2.03-.04.65-.08 1.3-.11 1.95-.28 5.9.15 11.81.56 17.7.4 5.71.94 11.4 1.52 17.09.4 3.98 1.42 12.6 1.9 16.57.82.17 1.46 0 2.29-.14.22-.04 4.6-17.94 4.58-24.74-.09-28.31 14.88-57.82 18.9-60.89 9.34-7.14 20.59-11.7 32.15-13.67 5.18-.87 10.59-1.29 15.89-.89-.65-7.11-5.26-12.99-12.55-13.23z" class="fil2"></path>
  <path fill="#001d29" fill-rule="nonzero" d="M521.13 518.15c-8.5-23.13-18.13-45.89-27.21-68.79-2.07-5.22-3.85-10.75-6.72-15.61-2.3-3.9-5.52-7.08-8.97-9.98-8.52-7.13-17.78-13.47-27.34-19.12-10.64-6.27-21.82-11.98-33.44-16.2-.3-.11-.43.35-.14.47 20.05 8.61 38.85 18.94 56.01 32.52 4.3 3.4 8.72 6.95 11.78 11.57 2.94 4.47 4.65 9.72 6.61 14.66l13.14 33.12c5 12.6 9.76 25.34 15.08 37.81.28.67 1.45.24 1.2-.45zM417.91 358.18c-.47-2.66-.69-5.5-1.82-7.98-.12-.25-.47-.12-.49.12-.32 3.28.68 6.81 1.19 10.05.26 1.58.79 7.68.79 9.28 0 2.39-.85 2.67-3.05 3.27-.95.26-1.91.44-2.88.6-1.06.18-.67 1.8.38 1.62 2.59-.45 7.4-.83 7.33-4.25-.06-2.73-.98-10.01-1.45-12.71zm-44.51 77.93c-2.38-13.32-1.47-26.84-2.73-40.26-.57-6.02-1.57-11.99-2.79-17.91-.38-1.85-.76-3.72-1.16-5.59 2.67-1.44 4.35-5.64 5.77-8.07 2.08-3.56 3.95-7.26 4.74-11.33.07-.36-.41-.52-.54-.17-2.4 6.31-5.58 13.35-10.21 18.46-.93-4.26-1.99-8.52-3.45-12.57a.22.22 0 0 0-.43.1c.92 6.54 2.86 12.96 4.18 19.43 1.36 6.64 2.44 13.35 2.97 20.11.99 12.36.52 24.85 2.57 37.12-.29.11-.51.39-.43.74-.87.96-1.75 1.91-2.63 2.86-.8-.03-1.59-.16-2.35-.38-.86-.21-1.71-.5-2.54-.81-1.77-.67-3.46-1.53-5.1-2.46-2.89-1.65-5.63-3.54-8.4-5.37-6.15-4.06-12.3-8.13-18.56-12.01-6.08-3.78-12.26-7.4-18.64-10.64-2.79-1.42-5.62-2.77-8.49-4.03-2.99-1.33-6.51-3.39-9.8-3.48-.05 0-.05.05-.03.07 1.55 1.25 3.47 1.77 5.29 2.53 2.27.95 4.52 1.95 6.74 3.01 4.02 1.9 7.95 3.95 11.83 6.1 7.62 4.24 15 8.9 22.28 13.69 6.91 4.55 13.71 10.15 21.3 13.51 2.38 1.06 5.98 2.58 8.59 1.38 1.55-.71 2.31-2.18 1.96-3.71.05-.09.08-.19.06-.32z"></path>
  <path d="M556.16 502.25a92.288 92.288 0 0 0-16.23 5.41c-7.83 3.44-16.42 8.54-20.65 16.22.04.02.08.05.11.06 4.04 1.23 41.08-12.25 37.07-21.03-.1-.21-.2-.44-.3-.66z" class="fil5"></path>
  <path d="M549 504.23c-6.45 2.14-12.91 4.58-20.72 9.93 4.43 9.12 10.36 20.18 12.22 23.58 4.48 3.43 10.5 4.57 15.4 1.33 3.05-2.01-1.98-19.58-6.9-34.84z" class="fil6"></path>
  <path d="M552.05 514.03c-.97-3.26-2.01-6.58-3.05-9.8-6.45 2.14-12.91 4.58-20.72 9.93 1.77 3.65 3.78 7.6 5.68 11.25 5.11-5.25 11.29-9.4 18.09-11.38z" class="fil7"></path>
  <path d="M605.23 516.9c.2-.92-.14-1.94-.86-2.64-1.32-1.28-3.51-1.23-5.2-.99-4.74.68-8.68 3.81-12.89 5.86-4.73 2.31-9.82 3.84-15.04 4.59-4.47.64-11.07-.12-15.48-.43-2.74 2.19-4.19 4.04-7.24 4.92-3.55 1.02-8.09 2.16-12.25 1.95-.72-.03-1.36.28-1.78.87-.41.6-.49 1.3-.21 1.97 2.28 5.43 4.84 10.76 7.5 15.99.81 1.57 1.62 3.14 2.45 4.7.74 1.38 1.39 3.07 2.5 4.2 2.14 2.19 5.67.78 8.09-.12 6.43-2.39 12.38-6.42 17.98-10.31 5.62-3.89 10.97-8.15 16.04-12.74 5.88-5.32 11.34-11.1 16.36-17.25.16-.19.13-.41.03-.57z" class="fil8"></path>
  <path d="M605.23 516.9c.2-.92-.14-1.94-.86-2.64-1.32-1.28-3.51-1.23-5.2-.99-4.6.66-8.44 3.62-12.5 5.67-.25 2.18.02 4.44 1.1 6.98.95 2.27 2.27 4.34 3.72 6.33 4.88-4.63 9.46-9.57 13.71-14.78.16-.19.13-.41.03-.57z" class="fil9"></path>
  <path d="M605.23 516.9c.2-.92-.14-1.94-.86-2.64-1-.96-2.49-1.17-3.89-1.12-1.08 2.79-3.69 5.31-5.62 7.13-4.44 4.21-9 8.33-13.65 12.3-10.86 9.28-22.77 17.64-36.3 22.46.51 1.03 1.05 2.08 1.82 2.86 2.14 2.19 5.67.78 8.09-.12 6.43-2.39 12.38-6.42 17.98-10.31 5.62-3.89 10.97-8.15 16.04-12.74 5.88-5.32 11.34-11.1 16.36-17.25.16-.19.13-.41.03-.57zM559.43 524.46c-.02-.35-.46-.57-.74-.36-1.03.77-1.48 2.25-2.29 3.25-.97 1.23-2.18 2.18-3.35 3.21-.35.3-.11 1 .4.78 1.51-.64 2.74-1.71 3.82-2.93.88-1 2.25-2.55 2.16-3.95zm11.22-.15c-.92 2.55-2.43 4.67-3.8 6.97-.2.32.25.65.53.46 2.32-1.58 3.76-4.17 4.73-6.74.37-.97-1.11-1.67-1.46-.69zm-6.31.41c-.71 1.55-1.38 3.03-2.49 4.34-1.01 1.2-2.17 2.23-3.27 3.33-.19.19.05.44.27.39 3.39-.87 6.12-4.28 7-7.58.23-.88-1.14-1.28-1.51-.48z" class="fil10"></path>
  <path d="M280.28 419.83c3.67-5.72 6.85-11.74 9.64-17.92 1.24-2.75 2.46-5.46 3.52-8.28-6.61 3.47-11.73 9.68-15.32 16.1-2.26 4.07-4 8.43-4.98 12.99-.55 2.52-.58 5.05-.46 7.58 2.73-3.33 5.27-6.82 7.6-10.47z" class="fil5"></path>
  <path d="M282.48 416.74c1.81-2.99 3.28-5.62 4.77-8.78.77-1.63 1.62-3.49 2.31-5.25-6.14-2.99-28.35-13.69-33.04-15.68-5.63.08-11.06 2.92-12.9 8.5-1.34 4.05 20.62 19.04 34.22 27.95 1.43-2.18 3.29-4.5 4.64-6.74z" class="fil6"></path>
  <path d="M275.58 395.97c.91 8.18.16 16.77-2.31 24.49 1.59 1.06 3.13 2.08 4.57 3.02 1.43-2.18 3.29-4.5 4.64-6.74 1.81-2.99 3.28-5.62 4.77-8.78.77-1.63 1.62-3.49 2.31-5.25-2.62-1.27-8.14-3.94-13.98-6.74z" class="fil7"></path>
  <path d="M201.83 426.38c.11.95.77 1.83 1.69 2.27 1.7.81 3.8.05 5.35-.73 4.37-2.2 7.16-6.52 10.56-9.87 3.82-3.77 8.25-6.91 13.05-9.33 4.12-2.09 10.74-3.49 15.11-4.64 1.94-3.01 2.73-5.26 5.4-7.11 3.15-2.18 7.24-5.46 11.39-6.86.68-.23 1.16-.74 1.34-1.43.17-.7 0-1.38-.49-1.9-3.98-4.28-8.2-7.89-12.5-12.1-1.29-1.26-2.59-2.51-3.9-3.75-1.16-1.09-2.34-2.51-3.78-3.25-2.78-1.42-5.73 1.1-7.78 2.76-5.44 4.41-9.88 10.24-14.04 15.82-4.16 5.6-7.95 11.46-11.35 17.54-3.96 7.07-7.36 14.44-10.2 22.02-.09.24 0 .44.15.56z" class="fil8"></path>
  <path d="M201.83 426.38c.11.95.77 1.83 1.69 2.27 1.29.61 2.8.33 4.13-.19.13-3.03 1.84-6.33 3.11-8.72a369.14 369.14 0 0 1 9.2-16.34c7.48-12.5 16.27-24.47 27.79-33.54-.83-.83-1.7-1.67-2.7-2.18-2.78-1.42-5.73 1.1-7.78 2.76-5.44 4.41-9.88 10.24-14.04 15.82a160.932 160.932 0 0 0-21.55 39.56c-.09.24 0 .44.15.56zM243.66 404.15c.13.33.63.4.84.1.74-1.07.69-2.65 1.14-3.89.55-1.49 1.41-2.81 2.2-4.19.24-.4-.22-1-.64-.62-1.25 1.11-2.09 2.54-2.74 4.08-.52 1.25-1.35 3.2-.8 4.52zm-10.8 3.8c.06-2.77.82-5.3 1.4-7.98.08-.37-.45-.55-.66-.27-1.73 2.28-2.28 5.26-2.38 8.05-.04 1.07 1.62 1.26 1.64.2zm5.96-2.45c.19-1.73.36-3.38 1-5.02.59-1.48 1.37-2.85 2.08-4.27.12-.25-.2-.42-.38-.29-3.01 1.94-4.53 6.13-4.31 9.6.06.93 1.52.88 1.61-.02z" class="fil10"></path>
  <path d="M201.83 426.38c.11.95.77 1.83 1.69 2.27 1.7.81 3.8.05 5.35-.73 4.23-2.14 6.99-6.26 10.25-9.56-.48-2.18-1.48-4.29-3.34-6.39-1.66-1.88-3.61-3.46-5.67-4.91-3.2 6.06-6.02 12.33-8.43 18.76-.09.24 0 .44.15.56z" class="fil9"></path>
  <path fill="#f2ba92" fill-rule="nonzero" d="M531.56 250.49c-6.55-3.74-13.17-1.65-17.62 3.96-4.32 5.43-11.65 12.16-17.46 15.99-6.2 4.08-10.75 6.49-17.29 9.33 0 0-3.92 1.43-7.17 2.12l-4.85.42c-1.86-.06-2.66-.37-4.52-.97.05.05.09.09.08.13l-.93-.53c-.31-.17-.57-.31-.52-.28-5.32-3.22-8.38-9.13-10.17-14.86-3.29-10.49-5.08-23.69-6.89-34.61-1.18-7.08-.82-15.85-7.04-20.58-2.7-2.05-6.51-1.09-8.92.82-5.25 4.18-4.71 15.13-4.74 21.37-.03 7.11.69 14.14 1.62 21.19 1.58 12.02 3.68 24.94 10.53 35.22 7.72 11.6 19.79 19.58 34.18 18.78 26-1.44 50.46-19.77 65.66-39.88 4.04-5.33 1.69-14.39-3.95-17.62z"></path>
  <g>
    <path fill="#32c682" fill-rule="nonzero" d="M452.16 239.56c-2.32-12.61-13.65-29.62-21.29-35.46-5.15-3.94-8.89-5.86-20.98-7.7-3.73-.85-7.91-1.29-12.6-1.38-3.29-.06-6.3.12-9.09.54-6.28 2.35-11.44 7.16-15.56 12.47-10.66 13.74-25.82 124.08-24.6 142.6.06.99.92 1.75 1.91 1.7l94.51-5.33c.52-.03.96-.25 1.29-.65.34-.4.48-.86.42-1.38-3.2-27.26-7.33-84.6-9.2-100.03 2.03-.41 15.86-1.7 15.19-5.38z"></path>
    <path d="M435.15 208.12c-11.82-12.34-18.45-3.38-17.69 3.63 2.66 24.22-.39 61.59.12 85.98.87 40.57-46.32 16.62-64.34-2.34l-.03.26-.04.26-.04.26-.14 1.04-.03.26-.04.26-.03.25-.04.26-.04.26-.03.26-.04.26-.17 1.28-.03.26-.04.25-.03.26-.07.51-.03.25-.04.26-.03.25-.07.51-.03.25-.03.25-.04.26-.06.5-.04.25-.03.26-.03.25-.03.25-.1.75-.03.25-.04.25-.03.25-.15 1.24-.03.25-.04.24-.03.25-.03.25-.03.24-.24 1.96-.03.24-.01.04-.02.2c3.71 9.89 12.52 18.52 21.27 23.77 12.39 7.42 28.5 7.14 41.99 3.3 8.65-2.47 17-6.12 25.65-8.74l4.4-1.34c-2.6-26.97-5.42-64.14-7.06-79.91-.16-1.35-.3-2.58-.41-3.67 2.03-.41 15.86-1.7 15.19-5.38-.04-.19-.07-.37-.11-.56l-.04-.16-.09-.45-.02-.06c-1.07-4.78-3.32-10.09-6.11-15.15-3.32-5.99-7.31-11.45-10.64-15.06z" class="fil8"></path>
    <path d="M398.97 207.92c3.6.07 8.29-.37 12.16-2.02.18-6.75.41-18.6.55-25.75l-30.02-.59-.42 21.3c3.51 5.36 11.91 6.95 17.73 7.06z" class="fil6"></path>
    <path d="M397.65 198.42c3.86.54 8.86 1.47 13.61 3.07l.42-21.34-30.02-.59-.39 19.55c5.25-1.43 11.06-1.43 16.38-.69z" class="fil7"></path>
    <g>
      <path fill="#009552" d="M435.46 239.54c0-3.49 2.2-18.72-5.17-35.88l.1.08.02.01.22.17h.01l.23.18c7.32 5.6 18.03 21.45 20.95 33.86l-10.95 4.92-5.41-3.34z"></path>
      <path fill="#00864a" fill-rule="nonzero" d="M451.61 237.11c-.19-.71-.4-1.44-.63-2.17-5.43 2.37-9.74 3.32-15.52 4.6l1.51 5.4c1.55-.31 9.98-1.14 13.58-3.15.96-.54 1.49-.97 1.63-1.56.2-.82-.24-1.86-.57-3.12z"></path>
    </g>
  </g>
  <g>
    <path d="M364.28 99.32c-20.52 10.84-15.91 25.7-15.91 25.7s3.78 11.41 7.91 25.11c-2.76-2.24-6.5-2.49-9.6-.05-6.59 5.18 5.19 27.15 15.95 22.09 2.24 6.41 6.2 10.82 7.52 12.36 4.96 5.82 19.7 12.76 32.51 11.03 12.81-1.74 22.84-19.55 20.8-34.16-1.27-4.76-3.5-13.14-5.92-22.28-.03-.12.03-.34-.1-.36l-.99-.18c-.48-4.11-1.66-8.33-3.2-12.12l.74-.77c.05-.06-.04-.16-.07-.23l-7.23-27.41s-8.42-16.69-42.41 1.27z" class="fil6"></path>
    <path d="M384.54 127.77c-3.04-3.77-13.2-4.69-16.28 2.63-.55 1.3-.58 3.29-.19 4.51 2.22-1.72 1.26-1.55 4.72-3.59 2.53-1.48 8.81-2.54 11.75-3.55zM397.56 124.29c1.77-.39 7.24-2.26 8.88-2.1 3.97.37 3.2.63 5.45.98-.11-6.18-9.59-8.67-13.42-1.88l-.91 3z" class="fil15"></path>
    <path d="M358.07 169.43c.24-.07.48-.16.72-.28-2.32-2.01-2.86-5.53-.17-6.25.17-.05.35-.08.55-.1-1.7-5.79-5.8-10.58-9.05-9.71-.47.13-.93.38-1.36.76-3.41 3.06 3.5 17.14 9.31 15.58z" class="fil7"></path>
    <path d="M395.54 186.13c8.93-1.49 5.15-9.52 5.15-9.52l4.07-.42s.44 11.53 9.3 5.2c8.86-6.33 3.52-14.8 2.16-15.75 0 0-6.95 2.24-13.42-.51 0 0-5.73 5.56-15.66 5.22 0 0-4.64 17.96 8.4 15.78zM416.2 99.9s-7.53 24.44-54.91 19.43c1.36 8.19-3.68 15.59-3.68 15.59l3.82 14.25v-.08c.08.32.15.62.23.93l1.43 5.33c6.3 20.78 16.69 24.09 19.3 14.51 2.79-9.56 12.11-9.72 17.87-10.52 17.13-6.71 16.5 4.81 20.47 4.85 3.97.03 1.31-8.03 1.31-8.03 3.23 8.02 3.62 16.21 3.32 20.91-.7 11.05-8.21 22.53-18.24 24.97-11.86 2.9-27.81-5.01-35.76-13.62-5.75-6.22-8.54-13.78-8.73-16.25.33-2.84-.79-7.71-1.55-10.58l-4.19-10.18s-2.75-2.87-5.79-2.5c-5.08-7.04-9.27-13.46-10.92-19.63-4.37-16.32 5.53-17.85 5.53-17.85s-.07-.57-.01-1.55c-.06-15.39 6.6-21.64 14.77-25.34 16.74-7.59 43.63 3.72 49.45-2.31-.16 2.68-3.82 5.42-3.82 5.42 7.18-1.92 6.62-7.27 6.62-7.27 5.82 8.56-.15 19.85-4.52 21.66 5.22-.32 8-2.14 8-2.14z" class="fil15"></path>
    <path d="M402.53 138.26s.05-.27.13-.75c.07-.47.2-1.15.41-1.93.21-.77.51-1.66 1.04-2.45.13-.2.3-.37.45-.56.19-.14.33-.33.54-.44.19-.13.38-.27.62-.33.21-.11.45-.17.71-.21l.31-.07.49-.04c.37-.05.54 0 .76.01.44.05.93.18 1.32.38.39.23.77.47 1.07.79.31.29.57.62.79.93.44.64.75 1.23.95 1.65.21.41.31.66.31.67.01-.01.07-.28.08-.76.01-.48-.03-1.18-.29-1.98s-.74-1.75-1.79-2.48c-.55-.34-1.18-.65-1.98-.74-.41-.05-.87-.09-1.15-.06l-.49.03c-.33.02-.43.07-.66.11-.4.07-.79.19-1.17.37-.39.15-.72.38-1.05.62-.64.46-1.05 1.06-1.35 1.6-.56 1.12-.65 2.14-.63 2.98.05 1.68.58 2.66.58 2.66zm9.9-2.35zM375.14 146.24l.03-.75c.02-.47.06-1.14.17-1.93.06-.39.14-.8.26-1.23.11-.43.3-.85.5-1.26.23-.4.52-.76.89-1.03.17-.15.36-.27.59-.36.2-.12.46-.17.7-.24l.19-.05.04-.02h.01l.08-.01.49-.07c.37-.07.51-.01.75-.02.22-.01.47.07.72.08.22.07.46.12.67.22.42.19.83.41 1.17.69.35.27.65.57.91.86.52.58.91 1.14 1.17 1.53.25.39.39.63.4.64 0-.01.02-.29-.03-.76-.05-.48-.17-1.16-.53-1.92s-.96-1.65-2.09-2.29c-.57-.31-1.24-.56-2.04-.61-.39-.01-.9-.05-1.17.01l-.49.05-.12.02h-.04l-.1.02h-.02l-.36.1c-.39.11-.78.22-1.15.43-.38.17-.71.4-1.01.66-.63.5-.97 1.13-1.23 1.69-.44 1.15-.4 2.16-.28 2.98.26 1.65.92 2.57.92 2.57zm9.74-2.95z" class="fil16"></path>
    <path fill="#fff" fill-rule="nonzero" d="M388.27 171.85s17.25 13 26.74-4.41l-26.74 4.41z"></path>
    <path d="M351.03 148.81l16.06-8.35c.81-.48 1.68 2.74 1.08 3.13l-14.61 5.65c-.76-.28-1.6-.44-2.46-.33l-.07-.1zM415.34 126.45c-1.24.19-2.56.42-3.95.69-1.33.27-2.71.58-4.12.93-1.52.37-3.11.81-4.75 1.3-1.51.45-3.1.97-4.74 1.55-.41.18-.75.45-.95.78-.16.27-.22.59-.14.92.32 1.22.71 2.5 1.19 3.72.47 1.18 1.03 2.28 1.7 3.2.65.87 1.41 1.56 2.31 1.96.88.39 1.91.5 3.14.22 1.93-.44 3.61-.86 5.27-1.31 1.66-.45 3.32-.94 5.21-1.54 1.08-.34 1.78-.95 2.21-1.72.45-.81.63-1.82.64-2.9.02-2.18-.63-4.67-1.12-6.57l-.08-.3c-.08-.32-.28-.55-.55-.7-.34-.19-.79-.27-1.27-.23zm-4.24-.73c1.43-.28 2.78-.52 4.04-.71h.06c.76-.07 1.51.06 2.12.41.6.33 1.05.86 1.24 1.57l.08.32c.52 1.98 1.19 4.58 1.17 6.95-.01 1.31-.24 2.56-.83 3.6-.6 1.08-1.57 1.93-3.04 2.39-1.89.6-3.56 1.1-5.26 1.56-1.69.46-3.39.88-5.33 1.32-1.55.35-2.89.21-4.05-.3-1.15-.51-2.09-1.36-2.88-2.42-.76-1.03-1.38-2.25-1.89-3.54-.5-1.26-.9-2.6-1.24-3.88-.19-.74-.06-1.44.3-2.04.35-.59.93-1.07 1.62-1.36l.08-.04c1.62-.57 3.24-1.1 4.82-1.57 1.65-.5 3.26-.94 4.8-1.32 1.48-.36 2.88-.68 4.19-.94z" class="fil18"></path>
    <path d="M368.61 136.83c1.21-.45 2.52-.89 3.91-1.32a85.1 85.1 0 0 1 4.22-1.2c1.58-.41 3.23-.8 4.94-1.16 1.64-.34 3.34-.65 5.11-.94h.07c.77-.08 1.52.06 2.14.41.61.35 1.07.89 1.27 1.64.34 1.29.65 2.66.84 4.02.19 1.38.25 2.76.08 4.04-.17 1.33-.58 2.55-1.34 3.57-.77 1.03-1.87 1.84-3.42 2.33-1.93.6-3.65 1.1-5.38 1.56-1.74.46-3.47.87-5.45 1.31-1.54.34-2.83.07-3.92-.6-1.04-.65-1.88-1.66-2.55-2.86-1.22-2.13-1.94-4.84-2.49-6.91l-.1-.36c-.2-.75-.07-1.46.28-2.06.37-.63.98-1.13 1.69-1.44l.1-.03zm4.34.06c-1.38.43-2.66.86-3.84 1.3l-.02.01c-.44.19-.81.48-1.02.83-.16.28-.22.61-.13.95l.1.37c.53 1.99 1.22 4.59 2.35 6.57.56.99 1.24 1.83 2.06 2.34.77.48 1.7.67 2.83.42 1.98-.44 3.7-.85 5.39-1.3 1.7-.45 3.4-.94 5.33-1.55 1.23-.38 2.09-1.01 2.68-1.8.6-.81.93-1.8 1.07-2.9.15-1.14.09-2.39-.08-3.66-.17-1.29-.47-2.59-.79-3.82l-.01-.02c-.09-.34-.3-.59-.59-.75-.35-.2-.8-.28-1.27-.23-1.74.28-3.42.59-5.03.92-1.72.36-3.35.74-4.88 1.14-1.45.38-2.84.77-4.15 1.18z" class="fil18"></path>
    <path fill="#d5a17e" fill-rule="nonzero" d="M393.48 132.46c4.15 6.68 7.76 14.24 11.72 21.16-1.78 1.79-3.58 3.59-5.25 5.49 2.2-1.67 4.51-3.73 6.61-5.51-3.03-6.68-8.03-15.69-13.08-21.14z"></path>
    <path d="M390.58 136.11c-.31.26-.82.01-1.08-.29-.26-.31-.33-1.19-.03-1.45 1.03-.87 2.2-1.49 3.37-1.8 1.2-.33 2.41-.33 3.5.01.38.12.71.94.59 1.33-.12.38-.47.8-.86.68-.82-.25-1.75-.24-2.68.01-.98.26-1.95.77-2.81 1.51z" class="fil18"></path>
  </g>
  <path d="M512.11 310.07l-77.62-.29c-1.94 0-3.54-1.54-3.62-3.49l-4.12-104.89c-.04-1.02.3-1.92 1.01-2.66.71-.74 1.6-1.12 2.62-1.12l85.92.46-.4 60.49-3.79 51.5z" class="fil20"></path>
  <path fill="#1e1e1e" fill-rule="nonzero" d="M516.3 198.08l-4.19 111.99 8.23-1.56c1.92-.37 3.5-1.54 3.65-3.49l7.45-100.62c.17-2.31-1.56-3.32-3.64-3.78l-11.5-2.54z"></path>
  <g>
    <path d="M458.07 274.82c-6.43-3.74-13.12-1.65-17.75 3.96-4.47 5.42-12.02 12.16-17.94 15.99-6.27 4.04-10.97 6.5-17.58 9.33 0 0-3.96 1.43-7.23 2.11l-4.87.43c-1.85-.06-2.63-.37-4.48-.97.05.05.08.09.07.13l-.92-.53c-.3-.17-.55-.31-.51-.28-5.23-3.23-8.1-9.15-9.71-14.86-2.97-10.49-4.36-23.73-5.83-34.62-.96-7.07-.34-15.84-6.4-20.57-2.65-2.06-6.48-1.1-8.95.82-5.36 4.16-5.17 15.06-5.4 21.36-.25 7.12.26 14.15.97 21.2 1.21 12.02 2.92 24.94 9.45 35.22 7.37 11.6 19.19 19.57 33.61 18.78 26.15-1.45 51.16-19.89 66.88-39.88 4.2-5.33 2.13-14.39-3.41-17.62z" class="fil6"></path>
    <path d="M371.96 260.4c-.21-1.63-.42-3.26-.64-4.89-.96-7.07-.34-15.84-6.4-20.57-2.65-2.06-6.48-1.1-8.95.82-3.45 2.68-4.32 7.58-4.85 11.64-.41 3.21-.43 6.51-.55 9.72-.2 5.79.11 11.51.61 17.24 6.16-6.36 12.83-11.84 20.78-13.96z" class="fil7"></path>
    <g>
      <path d="M343.99 258.75c8.13-1.64 16.29-3.25 24.23-5.64 3.69-1.12 7.36-2.28 11.08-3.26.33-.73.58-1.55.74-2.48.53-3.03.04-6.27-.16-9.31-.23-3.57-.51-7.13-.77-10.7-.32-4.26-1.38-18.06-7.6-18.48-10.57-.71-19.55 5.69-24.62 14.66-3 5.3-4.33 11.43-4.87 17.44-.3 3.32-.4 6.66-.48 9.99-.08 2.98.2 5.82 2.45 7.78z" class="fil8"></path>
      <path fill="#2eaa71" fill-rule="nonzero" d="M364.99 245.96c-7.97 1.94-15.57 5.23-23.33 8 .23 1.83.86 3.5 2.33 4.79 8.13-1.64 16.29-3.25 24.23-5.64 3.69-1.12 7.36-2.28 11.08-3.26.33-.73.58-1.55.74-2.48.21-1.18.26-2.39.23-3.62-5.11.75-10.37 1.02-15.28 2.21z"></path>
    </g>
  </g>
  <path d="M526.92 245c-2.13-.07-4.1.68-5.66 1.95-1.32.8-2.43 2-3.15 3.57-1.14 2.5-1.58 5.46-1.65 8.19-.03 1.46.3 2.91.31 4.36-.01.49-.02 1.54-.02 1.54.1.99.22 1.74.54 2.67 1.8 5.17 7.22 8.54 12.55 5.66 5.06-2.75 7.82-8.13 7.69-13.82-.15-6.53-3.01-13.88-10.61-14.12z" class="fil7"></path>
  <g>
    <path d="M508.21 306.76h-13.62c-.4 0-.72-.33-.72-.73v-7.33c0-.4.32-.73.72-.73h13.62c.4 0 .73.33.73.73v7.33c0 .4-.33.73-.73.73z" class="fil23"></path>
    <path d="M506.53 305.79h-8.09c-.4 0-.73-.32-.73-.72v-1.95c0-.4.33-.72.73-.72h8.09c.4 0 .73.32.73.72v1.95c0 .4-.33.72-.73.72z" class="fil20"></path>
  </g>
  <path d="M482.42 197.9l-21.63-.11.32 13.59c.01.2.06.37.16.53l.69 1.13c.2.32.52.51.9.52.37.02.7-.15.92-.46l.31-.43c.19-.27.46-.43.79-.46.33-.03.63.08.87.31l1.5 1.47c.22.22.5.33.81.31.31-.01.58-.14.78-.37l1.1-1.29c.21-.24.48-.37.8-.38.32-.01.59.11.82.34l1.06 1.09c.41.43 1.08.45 1.52.05l1.58-1.45c.41-.38 1.04-.39 1.46-.01l1.57 1.4c.23.21.51.3.83.27.31-.03.57-.17.76-.42l1.56-2.01c.15-.19.22-.4.23-.64l.29-12.98z" class="fil23"></path>
  <g>
    <path fill="#fff" d="M486.82 250.63c-3.53-4.36-7.07-8.71-10.63-13.07-.26-.32-.4-.7-.4-1.09-.01-.52.19-.98.58-1.32.37-.33.81-.51 1.33-.51.63.01 1.16.31 1.52.81 3.31 4.06 6.62 8.14 9.9 12.2 3.14-3.99 6.3-8.01 9.47-12.01.01-.02.02-.04.03-.05.4-.41.91-.72 1.54-.71.49 0 .96.14 1.32.49.33.31.5.69.5 1.14 0 .4-.18.79-.43 1.11 0 0 0 .01-.01.01-3.38 4.32-6.76 8.62-10.11 12.93 3.43 4.31 6.85 8.62 10.25 12.92.27.31.39.69.4 1.08 0 .48-.18.89-.5 1.24-.34.35-.79.54-1.29.53-.61-.01-1.11-.32-1.51-.76-.02-.01-.02-.02-.03-.03-3.19-4.01-6.41-8.03-9.62-12.07-3.17 3.98-6.31 7.94-9.43 11.9-.35.47-.86.7-1.47.7-.47-.01-.91-.16-1.25-.47-.39-.34-.56-.79-.57-1.28 0-.39.11-.76.36-1.06 3.33-4.21 6.68-8.41 10.05-12.63zm-27.8-16.68c3.35.03 6.59.93 8.88 3.5 2.21 2.47 3.06 5.53 3.13 8.71l.39 18.54c.01.51-.17.94-.52 1.29-.34.34-.79.54-1.29.53-.52 0-.99-.19-1.35-.58a1.88 1.88 0 0 1-.54-1.28c-.13-6.09-.28-12.2-.42-18.3-.06-2.31-.65-4.55-2.2-6.38-1.57-1.86-3.88-2.45-6.22-2.48-.83-.01-1.66-.01-2.49-.02-2.34-.02-4.6.52-6.08 2.34-1.45 1.8-1.92 4.02-1.84 6.33.21 6.1.42 12.19.62 18.29.02.48-.14.92-.45 1.26-.35.39-.81.57-1.33.56-.51 0-.96-.21-1.32-.57-.36-.35-.59-.79-.6-1.29-.23-6.17-.44-12.34-.67-18.52-.11-3.19.57-6.23 2.64-8.65 2.15-2.52 5.34-3.33 8.68-3.3 1 .01 1.99.01 2.98.02z"></path>
    <path fill="#32c682" d="M458.28 260.1c2.01.02 3.67 1.65 3.72 3.64a3.454 3.454 0 0 1-3.52 3.56c-1.99-.02-3.65-1.66-3.71-3.65-.06-1.98 1.51-3.57 3.51-3.55z"></path>
  </g>
</svg>
