<?xml version="1.0" encoding="UTF-8"?>
<svg xmlns="http://www.w3.org/2000/svg" width="600" height="600" fill-rule="evenodd" clip-rule="evenodd" image-rendering="optimizeQuality" shape-rendering="geometricPrecision" text-rendering="geometricPrecision">
  <defs>
    <style>.fil4{fill:#494949}.fil2{fill:#c2ced3}.fil16{fill:#c7cac6}.fil1{fill:#cbd7de}.fil17{fill:#d8dbd7}.fil9{fill:#e3877d}.fil15{fill:#ececec}.fil7{fill:#f1cbb4}.fil8{fill:#f5f5f5}.fil24,.fil25{fill:#fafafa}.fil24{fill-rule:nonzero}</style>
  </defs>
  <path fill="#fff" fill-rule="nonzero" d="M222.47 132.18c-117.76 0-213.21 95.46-213.21 213.21 0 117.76 95.45 213.22 213.21 213.22 14.77 0 29.19-1.5 43.11-4.36 12.67 2.85 25.84 4.36 39.36 4.36 71.63 0 133.41-42.17 161.87-103.04 54.4-21.91 92.8-75.17 92.8-137.4 0-29.41-8.58-56.8-23.36-79.84 14.33-12.66 23.36-31.16 23.36-51.78 0-38.17-30.93-69.1-69.1-69.1-8.35 0-16.36 1.48-23.78 4.2-13.36-27.03-41.22-45.64-73.42-45.64-43.14 0-78.47 33.36-81.64 75.67-27.14-12.51-57.35-19.5-89.2-19.5zm286.67 328.65c-4.35 0-7.88-3.53-7.88-7.88 0-4.36 3.53-7.89 7.88-7.89 4.36 0 7.89 3.53 7.89 7.89 0 4.35-3.53 7.88-7.89 7.88zm-23.96 33.74c-9.87 0-17.87-8-17.87-17.87 0-9.88 8-17.88 17.87-17.88 9.88 0 17.88 8 17.88 17.88 0 9.87-8 17.87-17.88 17.87zm-25.96 16.61c-5.35 0-9.69-4.34-9.69-9.69s4.34-9.7 9.69-9.7c5.36 0 9.7 4.35 9.7 9.7s-4.34 9.69-9.7 9.69zM571.4 264.99c-10.68 0-19.35-8.66-19.35-19.35 0-10.68 8.67-19.34 19.35-19.34 10.68 0 19.34 8.66 19.34 19.34 0 10.69-8.66 19.35-19.34 19.35zm2.87 32.54c-5.39 0-9.76-4.37-9.76-9.75 0-5.39 4.37-9.75 9.76-9.75 5.38 0 9.75 4.36 9.75 9.75 0 5.38-4.37 9.75-9.75 9.75zM472.68 105.38c-7.67 0-13.9-6.22-13.9-13.9 0-7.67 6.23-13.9 13.9-13.9 7.68 0 13.91 6.23 13.91 13.9 0 7.68-6.23 13.9-13.91 13.9zm-27.33-23.85c-4.14 0-7.5-3.36-7.5-7.5 0-4.14 3.36-7.49 7.5-7.49 4.14 0 7.5 3.35 7.5 7.49 0 4.14-3.36 7.5-7.5 7.5zm-339.3 72.9c-4.59-.18-8.17-4.05-8-8.64.17-4.6 4.04-8.18 8.64-8 4.6.18 8.17 4.04 8 8.64a8.333 8.333 0 01-8.64 8zm31.49-18.65c-12.79-.49-22.75-11.25-22.26-24.03.49-12.79 11.25-22.76 24.03-22.27 12.78.49 22.76 11.26 22.26 24.04-.49 12.78-11.25 22.75-24.03 22.26zM192.17 123c-8.67-.33-15.45-7.64-15.12-16.32.33-8.69 7.64-15.45 16.33-15.12 8.68.33 15.45 7.64 15.11 16.32-.33 8.69-7.64 15.45-16.32 15.12z"></path>
  <path d="M217.98 396.69h8.29v75.64h-8.29z" class="fil1"></path>
  <rect width="16.99" height="43.13" x="213.63" y="357.08" class="fil2" rx="3.47" ry="4.63"></rect>
  <path d="M244.71 505.62h3.33c1.14 0 2.24-1.05 2.81-2.69.57-1.64.43-3.36-.35-4.41l-24.23-32.67h-8.29L193.92 499c-.86 1.18-1.23 2.79-.99 4.26.25 1.47 1.04 2.36 2.1 2.36h4.85c.78 0 1.5-.45 2.12-1.33l18-25.41c1.1-1.56 2.67-1.78 3.6-.52l19.62 26.45c.41.55.89.81 1.49.81z" class="fil2"></path>
  <path fill="#dfebed" d="M237.38 194.47s-88.66-2.13-102.68 1.82c-14.02 3.95 30.17 142.34 30.17 142.34h56.73l15.78-144.16z"></path>
  <path d="M127.24 197.88c7.24-2.4 9.57-3.13 11.2 5.29 1.49 7.64 27.6 128.13 31.64 135.46h95.17s22.52 12.21 22.74 19.44c.21 7.22-8.86 6.87-8.86 6.87H167.74c-2.5 0-10.69-1.6-13.42-13.53-2.73-11.93-28.43-129.06-30.13-137.6-.93-4.66-1.97-9.46-1.49-12.15.41-2.24 1.99-2.66 4.54-3.78z" class="fil1"></path>
  <path d="M295.1 489.41c-1.34 1.93-2.85 9.58-.28 16.33.49 1.27 1.64 2.07 3 2.07h35.32c1.07 0 1.98-.47 2.61-1.33.55-.77 1.05-1.96 1.05-3.73 0-4.14-4.98-7.25-13.23-9.46-8.25-2.21-9.61-1.75-13.81-3.24-4.19-1.49-14.66-.64-14.66-.64z" class="fil4"></path>
  <path fill="#5e5e5e" d="M298.9 348.87c1.91 11.64 12.14 106.75 14.63 135.03.23 2.54.36 4.44.43 5.75.07 1.37-.86 2.93-2.24 3.24-4.05 1.29-10.82 1.31-16.4-.36-1.29-.39-2.16-1.46-2.28-2.79-3.79-42.36-9.26-86.89-14.66-129.11-1.02-7.96-10.54-12.59-21-16.08-10.82-3.62-22.69-5.97-29.44-7.25l22.28-20.8c1.17.39 3.15 2.03 4.39 2.44 7.14 2.37 14.26 5.09 21.2 7.9 11.22 4.56 21.16 10.21 23.09 22.03z"></path>
  <path d="M241.17 489.41c-1.37 1.93-2.64 9.6.04 16.36.5 1.25 1.68 2.04 3.05 2.04h36.02c1.08 0 2.02-.47 2.65-1.33.57-.77 1.07-1.96 1.07-3.73 0-4.14-5.07-7.25-13.48-9.46-8.41-2.21-9.8-1.75-14.08-3.24-4.27-1.49-15.27-.64-15.27-.64z" class="fil4"></path>
  <path fill="#6e6e6e" d="M250.22 316.5s-1.85 12.26-10.84 17.57c0 0 7.58 6.48 10.25 19.92 2.42 12.17 10.36 111.28 11.16 133.29.03.79.04 1.43.05 1.96.01 1.49-.95 2.76-2.39 3.14-4.17 1.11-10.78 1.54-16.34-.03a3.17 3.17 0 01-2.33-2.88c-2.72-42.12-6.55-79.84-10.77-122.05-.62-6.18-1.44-13.2-10.47-15.61-10.42-2.79-23.52-8.26-23.52-21.25v-11.62l55.2-2.44z"></path>
  <path d="M315.09 271.84c15.01 0 35.6 5.27 35.6 14.9h-35.6v-14.9z" class="fil7"></path>
  <path d="M310.33 270.96h5.59v15.78h-5.59z" class="fil8"></path>
  <path d="M273.89 207.62s4.25 3.4 3.03 10.94c-1.22 7.54-6.21 48.01-6.21 48.01l41.42 3.72v16.45h-54.06l15.82-79.12z" class="fil9"></path>
  <path fill="#ed8c83" d="M254.61 318.94l19.28-111.32c-4.62-4.89-18.09-11.62-33.36-13.55-15.27-1.92-29.74 2.13-39.3 6.64l-6.21 118.23c19.65 1.94 39.52 1.88 59.59 0z"></path>
  <path d="M225.16 195.21l-.06.6c-1.54 16.28 23.55 19.83 28.5 2.91.6-2.06-.55-4.17-2.58-4.73-3.25-.91-6.7-1.63-10.26-2.08-4.02-.51-8-.59-11.85-.34a4.02 4.02 0 00-3.75 3.64z" class="fil8"></path>
  <g>
    <path fill="#edbea3" d="M243.25 171.08h-1.87c-5.09 0-9.66 4.16-10.14 9.26l-1.47 15.62c-1.17 12.42 19.22 12.41 20.4 0l1.47-15.62c.48-5.1-3.3-9.26-8.39-9.26z"></path>
    <path d="M250.11 136.74c-13.39 0-25.04 11.9-26 26.59-.96 14.68 9.12 26.58 22.52 26.58s25.04-11.9 26-26.58c.05-.79.07-1.57.06-2.34l-.06-24.25h-22.52z" class="fil7"></path>
    <path fill="#615549" d="M226.83 172.08c0 2.34-.14 4.89-3.57 4.89-3.43 0-6.47-5.93-6.47-12.99 0-12.79-2.53-34.49 12.4-38.56 0 0 2.47-8.47 12.03-8.47 9.56 0 19.12 6.91 30.38 6.91 11.26 0 13.42 7.21 11.9 12.88-1.52 5.68-8.13 12.95-10.84 13.67-2.71.73.85-6.93-5.84-10.3-6.69-3.37-22.16-3.76-26.56-1.16-4.39 2.6-1.57 6.17-11.88 10.83-4.93 2.23-5.87 4.81-5.45 7.05 1.06 5.62 3.93 3.8 3.9 15.25z"></path>
    <ellipse cx="223.38" cy="156.01" class="fil7" rx="8.02" ry="7.97"></ellipse>
  </g>
  <g>
    <path fill="#cecece" d="M385.04 280.93h-70.93v5.81h71.01v-5.73c0-.05-.04-.08-.08-.08z"></path>
    <path fill="#d5d7d5" d="M280.93 280.93h34.98c1.6 0 2.9 1.31 2.9 2.91v2.9h-40.78v-2.9c0-1.6 1.31-2.91 2.9-2.91z"></path>
  </g>
  <g>
    <path d="M235.55 270.61c16.26 0 38.56 5.71 38.56 16.13h-38.56v-16.13z" class="fil7"></path>
    <path d="M230.4 269.65h6.05v17.09h-6.05z" class="fil8"></path>
    <path d="M210.37 215.16l-15.94 45.53c-2.09 5.97-.86 6.92 4.79 7.04l32.08.65v18.36h-32.31c-7.54 0-19.89-2.03-24.16-8.23-4.28-6.21-3.26-14.46-.81-21.59l16.91-49.3c4.39-12.78 24.93-8.14 19.44 7.54z" class="fil9"></path>
  </g>
  <g>
    <path d="M188.41 291.88v223.45c0 3.45 3.16 4.42 4.58 4.42 2.43 0 4.42-1.99 4.42-4.42V291.69l-9 .19z" class="fil15"></path>
    <path d="M197.81 286.54l-100.95 1.21c-4.37.05-7.93 3.66-7.93 8.03 0 4.36 3.56 7.88 7.93 7.83l100.95-1.21v-15.86zM365.96 295.12v205.79c0 3.48 3.2 4.42 4.59 4.42a4.42 4.42 0 004.41-4.42V295.12h-9z" class="fil15"></path>
    <path d="M468.8 286.54H195.02v15.86H468.8c4.36 0 7.93-3.57 7.93-7.93 0-4.36-3.57-7.93-7.93-7.93z" class="fil15"></path>
    <path d="M448.76 295.12v216.6c0 3.44 3.14 4.42 4.58 4.42 2.43 0 4.42-1.99 4.42-4.42v-216.6h-9zM106.72 295.4v204.86c0 3.45 3.16 4.42 4.58 4.42 2.43 0 4.42-1.99 4.42-4.42V295.21l-9 .19z" class="fil15"></path>
  </g>
  <g>
    <path d="M418.94 186.74l-97.22-5.53c-3.24-.19-6.34 2.65-6.86 5.9l-10.66 67.03c-.52 3.24 1.7 5.97 4.94 5.9l98.3-2.26c3.24-.07 6.33-2.65 6.85-5.9l9.6-59.24c.52-3.24-1.71-5.72-4.95-5.9z" class="fil16"></path>
    <path d="M422.65 182.85l-97.85-1.64c-3.25-.06-6.33 2.65-6.83 5.9l-10.32 67.03c-.5 3.24 1.73 5.91 4.98 5.9l98-.43c3.24-.01 6.31-2.65 6.82-5.9l10.17-64.96c.51-3.25-1.73-5.85-4.97-5.9z" class="fil17"></path>
    <path fill="#cdcfcc" d="M372.07 214.75c-3.33 0-6.22 2.7-6.45 6.03-.23 3.33 2.28 6.03 5.61 6.03 3.33 0 6.22-2.7 6.45-6.03.24-3.33-2.28-6.03-5.61-6.03z"></path>
    <path fill="#b8bbb8" d="M359.84 282.38h6.38c1.1 0 2.01-.9 2.01-2.01v-7.88c0-.73-.08-1.34-.27-2.04l-6.71-25.56c-.23-.86-.34-1.65-.34-2.54v-1.84c0-1.88 2.08-3.19 3.46-3.66l15.74 45.53v4.36h-22.28v-2.35c0-1.11.9-2.01 2.01-2.01z"></path>
    <path d="M364.37 236.85h15.64c1.21 0 2.46.98 2.82 2.18l13.85 45.2c.18.61.34 2.51-.3 2.51h-19.14l-14.03-48.35c-.11-.38-.04-.75.2-1.06.23-.32.57-.48.96-.48z" class="fil16"></path>
    <path d="M373.19 220.96c-.38-.54-.76-1.09-1.15-1.64a.22.22 0 01-.04-.13c0-.07.03-.13.08-.17.05-.04.1-.06.16-.06.07 0 .13.04.17.1.36.51.71 1.02 1.07 1.53.39-.5.79-1.01 1.19-1.51h.01c.05-.06.11-.09.18-.09.06 0 .11.01.15.06.04.04.05.09.05.14 0 .05-.02.1-.06.14-.43.54-.85 1.09-1.27 1.63.37.54.73 1.08 1.1 1.62.03.04.04.08.04.13-.01.06-.03.11-.07.16-.04.04-.1.07-.15.07-.07 0-.13-.05-.18-.1-.34-.51-.69-1.01-1.04-1.52-.39.5-.79 1-1.19 1.5-.04.05-.1.08-.17.08-.05 0-.11-.02-.14-.06-.05-.04-.06-.1-.06-.16 0-.04.02-.09.05-.13.42-.53.84-1.06 1.27-1.58v-.01zm-3.41 1.19c.23.01.42.21.41.46-.01.25-.2.45-.44.45-.23-.01-.41-.21-.41-.46.01-.25.21-.45.44-.45zm0 0zm.28-3.28c.39 0 .76.12 1.01.44.24.31.32.69.3 1.09l-.09 2.33c0 .06-.02.12-.07.16a.18.18 0 01-.15.07c-.06 0-.11-.02-.16-.08a.254.254 0 01-.05-.16c.03-.76.06-1.53.08-2.29.02-.29-.04-.57-.2-.8-.18-.23-.44-.31-.71-.31-.1 0-.2 0-.29-.01-.28 0-.55.07-.73.3-.18.22-.26.5-.26.79l-.06 2.3c-.01.06-.03.11-.07.15-.04.05-.1.08-.16.08a.19.19 0 01-.15-.08.227.227 0 01-.06-.16l.06-2.32c.01-.4.11-.78.37-1.09.27-.31.65-.42 1.04-.41h.35z" class="fil17"></path>
  </g>
  <g fill-rule="nonzero">
    <path fill="#f4ca48" d="M304.92 41.39h-54.53c-2.98 0-5.39 2.4-5.39 5.37v29.47c0 2.97 2.41 5.38 5.39 5.38h2.02c.65 0 1.17.53 1.17 1.17v9.47c0 .48.28.91.73 1.09.45.18.94.09 1.28-.26l11.14-11.13c.22-.22.5-.34.83-.34h37.36c2.98 0 5.4-2.41 5.4-5.38V46.76c0-2.97-2.42-5.37-5.4-5.37z"></path>
    <path fill="#fefefe" d="M257.27 68.57h12.87c.99 0 1.8.81 1.8 1.8s-.81 1.8-1.8 1.8h-12.87c-.99 0-1.79-.81-1.79-1.8s.8-1.8 1.79-1.8zm0-17.74h40.77c.99 0 1.8.8 1.8 1.8 0 .99-.81 1.79-1.8 1.79h-40.77c-.99 0-1.79-.8-1.79-1.79 0-1 .8-1.8 1.79-1.8zm0 8.75h23.71a1.79 1.79 0 110 3.58h-23.71c-.99 0-1.79-.8-1.79-1.79s.8-1.79 1.79-1.79z"></path>
  </g>
  <g>
    <path fill="#31c380" fill-rule="nonzero" d="M536.66 66.53v69.83c0 6.02-4.88 10.88-10.91 10.88H376.86c-6.03 0-10.91-4.86-10.91-10.88V66.53c0-6.02 4.88-10.89 10.91-10.89h148.89c6.03 0 10.91 4.87 10.91 10.89z"></path>
    <path fill="#319467" fill-rule="nonzero" d="M536.66 66.53v6.04H365.95v-6.04c0-6.02 4.88-10.89 10.91-10.89h148.89c6.03 0 10.92 4.87 10.92 10.89h-.01z"></path>
    <path d="M396.17 64.91c0 1.27-1.03 2.29-2.3 2.29a2.285 2.285 0 010-4.57c1.27 0 2.3 1.02 2.3 2.28zm-18.31 0a2.29 2.29 0 01-2.29 2.29c-1.26 0-2.28-1.02-2.28-2.29 0-1.26 1.02-2.28 2.28-2.28 1.26 0 2.29 1.02 2.29 2.28zm9.15 0c0 1.27-1.02 2.29-2.28 2.29-1.27 0-2.29-1.02-2.29-2.29 0-1.26 1.02-2.28 2.29-2.28 1.26 0 2.28 1.02 2.28 2.28z" class="fil24"></path>
    <path d="M403.78 82.53c15.11 0 27.39 12.28 27.39 27.38 0 15.11-12.28 27.39-27.39 27.39-15.1 0-27.38-12.28-27.38-27.39 0-15.1 12.28-27.38 27.38-27.38zm0 50.5c12.76 0 23.13-10.36 23.13-23.12 0-12.76-10.37-23.12-23.13-23.12s-23.12 10.36-23.12 23.12c0 12.76 10.36 23.12 23.12 23.12zm-3.88-17.36l14.83-16.68c.76-.87 2.12-.95 2.99-.17.88.78.97 2.11.19 3l-16.16 18.17c-.41.46-.99.73-1.6.73-.49 0-.96-.17-1.32-.47l-10.12-8.08a2.138 2.138 0 01-.33-2.99 2.14 2.14 0 013-.34l8.52 6.83z" class="fil25"></path>
    <path d="M518.87 132.86h-73.3a2.14 2.14 0 01-2.14-2.13c0-1.18.96-2.14 2.14-2.14h73.3a2.136 2.136 0 110 4.27zM518.87 112.05h-73.3c-1.18 0-2.14-.96-2.14-2.14 0-1.17.96-2.13 2.14-2.13h73.3a2.134 2.134 0 110 4.27zM493.12 91.23h-47.55a2.14 2.14 0 01-2.14-2.13c0-1.18.96-2.14 2.14-2.14h47.55c1.17 0 2.13.96 2.13 2.14 0 1.17-.96 2.13-2.13 2.13z" class="fil24"></path>
  </g>
  <g>
    <path fill="#31c9dc" fill-rule="nonzero" d="M162.57 162.14H51.4c-3.78 0-6.84-3.05-6.84-6.82v-31.54c0-3.77 3.06-6.83 6.84-6.83h111.17c3.76 0 6.82 3.06 6.82 6.83v31.54c0 3.77-3.06 6.82-6.82 6.82z"></path>
    <path d="M151.96 132.01h-59.4a1.86 1.86 0 010-3.72h59.4c1.02 0 1.86.84 1.86 1.86 0 1.03-.84 1.86-1.86 1.86zM113.29 141.41H92.56c-1.02 0-1.85-.83-1.85-1.86 0-1.03.83-1.86 1.85-1.86h20.73c1.04 0 1.86.83 1.86 1.86 0 1.03-.83 1.86-1.86 1.86zM151.96 141.41h-24.79c-1.02 0-1.86-.83-1.86-1.86 0-1.03.84-1.86 1.86-1.86h24.79c1.02 0 1.86.83 1.86 1.86 0 1.03-.84 1.86-1.86 1.86zM137.08 150.8H92.56a1.86 1.86 0 010-3.72h44.52c1.04 0 1.87.84 1.87 1.86 0 1.03-.83 1.86-1.87 1.86z" class="fil24"></path>
    <path d="M68.81 122.94c9.16 0 16.61 7.45 16.61 16.61s-7.45 16.61-16.61 16.61c-9.15 0-16.61-7.45-16.61-16.61s7.46-16.61 16.61-16.61zm0 30.35c7.59 0 13.74-6.16 13.74-13.74s-6.15-13.74-13.74-13.74c-7.58 0-13.73 6.16-13.73 13.74s6.15 13.74 13.73 13.74zM67.4 135.3c0-.78.63-1.42 1.41-1.42.79 0 1.43.64 1.43 1.42v12.67c0 .79-.64 1.42-1.43 1.42-.78 0-1.41-.63-1.41-1.42V135.3zm0-4.18c0-.78.63-1.42 1.41-1.42.79 0 1.43.64 1.43 1.42v.87c0 .78-.64 1.42-1.43 1.42-.78 0-1.41-.64-1.41-1.42v-.87z" class="fil25"></path>
  </g>
</svg>
