<svg xmlns="http://www.w3.org/2000/svg" width="40" height="40" viewBox="0 0 40 40"><g><path fill="rgba(0,0,0,0.2)" d="M21.91 3.48l17.8 30.89c0.84,1.46 -0.23,3.25 -1.91,3.25l-35.6 0c-1.68,0 -2.75,-1.79 -1.91,-3.25l17.8 -30.89c0.85,-1.47 2.97,-1.47 3.82,0zm16.15 31.84l-17.8 -30.89c-0.11,-0.2 -0.41,-0.2 -0.52,0l-17.8 30.89c-0.12,0.2 0.05,0.4 0.26,0.4l35.6 0c0.21,0 0.38,-0.2 0.26,-0.4zm-19.01 -4.12l0 -1.05c0,-0.53 0.42,-0.95 0.95,-0.95 0.53,0 0.95,0.42 0.95,0.95l0 1.05c0,0.53 -0.42,0.95 -0.95,0.95 -0.53,0 -0.95,-0.42 -0.95,-0.95zm0 -4.66l0 -13.39c0,-0.52 0.42,-0.95 0.95,-0.95 0.53,0 0.95,0.43 0.95,0.95l0 13.39c0,0.53 -0.42,0.96 -0.95,0.96 -0.53,0 -0.95,-0.43 -0.95,-0.96z"></path></g></svg>
