<svg xmlns="http://www.w3.org/2000/svg" width="40" height="40" viewBox="0 0 40 40"><g><path fill="rgba(0,0,0,0.2)" d="M20 0c11.03,0 20,8.97 20,20 0,11.03 -8.97,20 -20,20 -11.03,0 -20,-8.97 -20,-20 0,-11.03 8.97,-20 20,-20zm0 37.98c9.92,0 17.98,-8.06 17.98,-17.98 0,-9.92 -8.06,-17.98 -17.98,-17.98 -9.92,0 -17.98,8.06 -17.98,17.98 0,9.92 8.06,17.98 17.98,17.98zm1.42 -17.98l6.13 6.12c0.39,0.4 0.39,1.04 0,1.43 -0.19,0.19 -0.45,0.29 -0.71,0.29 -0.27,0 -0.53,-0.1 -0.72,-0.29l-6.12 -6.13 -6.13 6.13c-0.19,0.19 -0.44,0.29 -0.71,0.29 -0.27,0 -0.52,-0.1 -0.71,-0.29 -0.39,-0.39 -0.39,-1.03 0,-1.43l6.13 -6.12 -6.13 -6.13c-0.39,-0.39 -0.39,-1.03 0,-1.42 0.39,-0.39 1.03,-0.39 1.42,0l6.13 6.12 6.12 -6.12c0.4,-0.39 1.04,-0.39 1.43,0 0.39,0.39 0.39,1.03 0,1.42l-6.13 6.13z"></path></g></svg>
