<svg xmlns="http://www.w3.org/2000/svg" width="40" height="40" viewBox="0 0 40 40"><g><path fill="rgba(0,0,0,0.2)" d="M20 0c11.03,0 20,8.97 20,20 0,11.03 -8.97,20 -20,20 -11.03,0 -20,-8.97 -20,-20 0,-11.03 8.97,-20 20,-20zm0 37.98c9.92,0 17.98,-8.06 17.98,-17.98 0,-9.92 -8.06,-17.98 -17.98,-17.98 -9.92,0 -17.98,8.06 -17.98,17.98 0,9.92 8.06,17.98 17.98,17.98zm-2.4 -13.29l11.52 -12.96c0.37,-0.41 1.01,-0.45 1.42,-0.08 0.42,0.37 0.46,1 0.09,1.42l-12.16 13.67c-0.19,0.22 -0.46,0.34 -0.75,0.34 -0.23,0 -0.45,-0.07 -0.63,-0.22l-7.6 -6.07c-0.43,-0.35 -0.5,-0.99 -0.16,-1.42 0.35,-0.43 0.99,-0.5 1.42,-0.16l6.85 5.48z"></path></g></svg>
