<svg xmlns="http://www.w3.org/2000/svg" width="40" height="40" viewBox="0 0 40 40"><g><path fill="rgba(0,0,0,0.2)" d="M20 0c11.03,0 20,8.97 20,20 0,11.03 -8.97,20 -20,20 -11.03,0 -20,-8.97 -20,-20 0,-11.03 8.97,-20 20,-20zm0 37.98c9.92,0 17.98,-8.06 17.98,-17.98 0,-9.92 -8.06,-17.98 -17.98,-17.98 -9.92,0 -17.98,8.06 -17.98,17.98 0,9.92 8.06,17.98 17.98,17.98zm-0.99 -23.3c0,-0.54 0.44,-0.98 0.99,-0.98 0.55,0 0.99,0.44 0.99,0.98l0 15.86c0,0.55 -0.44,0.99 -0.99,0.99 -0.55,0 -0.99,-0.44 -0.99,-0.99l0 -15.86zm0 -5.22c0,-0.55 0.44,-0.99 0.99,-0.99 0.55,0 0.99,0.44 0.99,0.99l0 1.09c0,0.54 -0.44,0.99 -0.99,0.99 -0.55,0 -0.99,-0.45 -0.99,-0.99l0 -1.09z"></path></g></svg>
