<svg xmlns="http://www.w3.org/2000/svg" id="NXReportFailure" width="110px" height="110px" fill="#ff5549" viewBox="0 0 120 120"><style>@-webkit-keyframes NXReportFailure2-animation{0%{opacity:0}40%,to{opacity:1}}@keyframes NXReportFailure2-animation{0%{opacity:0}40%,to{opacity:1}}@-webkit-keyframes NXReportFailure1-animation{0%{-webkit-transform:translate(60px,60px) scale(.5,.5) translate(-60px,-60px);transform:translate(60px,60px) scale(.5,.5) translate(-60px,-60px)}40%,to{-webkit-transform:translate(60px,60px) scale(1,1) translate(-60px,-60px);transform:translate(60px,60px) scale(1,1) translate(-60px,-60px)}60%{-webkit-transform:translate(60px,60px) scale(.95,.95) translate(-60px,-60px);transform:translate(60px,60px) scale(.95,.95) translate(-60px,-60px)}}@keyframes NXReportFailure1-animation{0%{-webkit-transform:translate(60px,60px) scale(.5,.5) translate(-60px,-60px);transform:translate(60px,60px) scale(.5,.5) translate(-60px,-60px)}40%,to{-webkit-transform:translate(60px,60px) scale(1,1) translate(-60px,-60px);transform:translate(60px,60px) scale(1,1) translate(-60px,-60px)}60%{-webkit-transform:translate(60px,60px) scale(.95,.95) translate(-60px,-60px);transform:translate(60px,60px) scale(.95,.95) translate(-60px,-60px)}}@-webkit-keyframes NXReportFailure3-animation{0%{-webkit-transform:translate(60px,60px) scale(.5,.5) translate(-60px,-60px);transform:translate(60px,60px) scale(.5,.5) translate(-60px,-60px)}50%,to{-webkit-transform:translate(60px,60px) scale(1,1) translate(-60px,-60px);transform:translate(60px,60px) scale(1,1) translate(-60px,-60px)}60%{-webkit-transform:translate(60px,60px) scale(.95,.95) translate(-60px,-60px);transform:translate(60px,60px) scale(.95,.95) translate(-60px,-60px)}}@keyframes NXReportFailure3-animation{0%{-webkit-transform:translate(60px,60px) scale(.5,.5) translate(-60px,-60px);transform:translate(60px,60px) scale(.5,.5) translate(-60px,-60px)}50%,to{-webkit-transform:translate(60px,60px) scale(1,1) translate(-60px,-60px);transform:translate(60px,60px) scale(1,1) translate(-60px,-60px)}60%{-webkit-transform:translate(60px,60px) scale(.95,.95) translate(-60px,-60px);transform:translate(60px,60px) scale(.95,.95) translate(-60px,-60px)}}@-webkit-keyframes NXReportFailure4-animation{0%{opacity:0}50%,to{opacity:1}}@keyframes NXReportFailure4-animation{0%{opacity:0}50%,to{opacity:1}}#NXReportFailure *{-webkit-animation-duration:1.2s;animation-duration:1.2s;-webkit-animation-timing-function:cubic-bezier(0,0,1,1);animation-timing-function:cubic-bezier(0,0,1,1)}</style><g style="-webkit-animation-name:NXReportFailure1-animation;animation-name:NXReportFailure1-animation;-webkit-animation-timing-function:cubic-bezier(.42,0,.58,1);animation-timing-function:cubic-bezier(.42,0,.58,1);-webkit-transform:translate(60px,60px) scale(1,1) translate(-60px,-60px)"><path d="M4.35 34.95c0-16.82 13.78-30.6 30.6-30.6h50.1c16.82 0 30.6 13.78 30.6 30.6v50.1c0 16.82-13.78 30.6-30.6 30.6h-50.1c-16.82 0-30.6-13.78-30.6-30.6v-50.1zM34.95 120h50.1c19.22 0 34.95-15.73 34.95-34.95v-50.1C120 15.73 104.27 0 85.05 0h-50.1C15.73 0 0 15.73 0 34.95v50.1C0 104.27 15.73 120 34.95 120z" style="-webkit-animation-name:NXReportFailure2-animation;animation-name:NXReportFailure2-animation;-webkit-animation-timing-function:cubic-bezier(.42,0,.58,1);animation-timing-function:cubic-bezier(.42,0,.58,1)" fill="inherit" data-animator-group="true" data-animator-type="2"></path></g><g style="-webkit-animation-name:NXReportFailure3-animation;animation-name:NXReportFailure3-animation;-webkit-animation-timing-function:cubic-bezier(.42,0,.58,1);animation-timing-function:cubic-bezier(.42,0,.58,1);-webkit-transform:translate(60px,60px) scale(1,1) translate(-60px,-60px)"><path d="M82.4 37.6c-.9-.9-2.37-.9-3.27 0L60 56.73 40.86 37.6a2.306 2.306 0 0 0-3.26 3.26L56.73 60 37.6 79.13c-.9.9-.9 2.37 0 3.27.45.45 1.04.68 1.63.68.59 0 1.18-.23 1.63-.68L60 63.26 79.13 82.4c.45.45 1.05.68 1.64.68.58 0 1.18-.23 1.63-.68.9-.9.9-2.37 0-3.27L63.26 60 82.4 40.86c.9-.91.9-2.36 0-3.26z" style="-webkit-animation-name:NXReportFailure4-animation;animation-name:NXReportFailure4-animation;-webkit-animation-timing-function:cubic-bezier(.42,0,.58,1);animation-timing-function:cubic-bezier(.42,0,.58,1)" fill="inherit" data-animator-group="true" data-animator-type="2"></path></g></svg>
