<svg xmlns="http://www.w3.org/2000/svg" viewBox="0 0 750 500">
  <g style="transform: translateY(-8%);">
    <g id="Stains-inject-156">
      <path d="M48.54,242.16c-4.21-24.3,4.24-51.14,23.63-66.36s49.53-16.35,68.32-.39c13.21,11.23,19.39,28.37,27.26,43.82s19.79,31.09,36.92,33.76c14.78,2.3,29.64-5.78,44.47-3.84,14.48,1.89,26.6,13.73,30.77,27.72s1,29.54-6.42,42.08-19,22.31-31.55,29.71c-40.49,23.81-94.22,23-134-1.93s-63.84-73-60-119.83" style="fill:#32c682"/>
      <path d="M283.11,459.66c13.15-9,19.33-28.76,11.11-42.39h0c-8.32-12.4-21.24-22.29-36-24.38s-31.15,4.9-37.73,18.31c-4.15,8.44-4.16,18.64-.72,27.39a43.53,43.53,0,0,0,18.19,20.91C251.55,467.72,270,468.64,283.11,459.66Z" style="fill:#32c682"/>
      <path d="M710.11,376.83c-.81-21.05-11.24-41.92-28.7-53.7s-41.77-13.39-59.76-2.44c-11.21,6.82-19.34,17.68-26.11,28.92-3.71,6.16-7.58,12.95-14.25,15.64-8.67,3.51-18.2-1.27-27.37-3.1a43.06,43.06,0,0,0-50,30.94c-8,33.19,15.27,56.88,40.15,71.26,27.81,16.08,63,16.06,93.24,5.34,19.85-7,38.35-18.6,51.87-34.75S710.93,397.88,710.11,376.83Z" style="fill:#32c682"/>
      <path d="M662.31,197c-2.57-16.8-18.77-31.9-35.68-30.28h0c-15.79,2.29-31.28,10.16-40.12,23.44s-9.67,32.25.2,44.78c6.21,7.89,16,12.62,26,13.35a46.48,46.48,0,0,0,28.53-7.86C655.49,231.13,664.88,213.82,662.31,197Z" style="fill:#32c682"/>
    </g>
    <g id="character-2-inject-156">
      <path d="M489.76,221.67l-5.9,35.41c-1,6-3.7,14.67-13.15,12.65h0c-8.07-2.37-8.86-10.55-7.92-16.17.45-2.67.82-4.89.84-5.17,0,0-8.87-2.35-8-11.38.41-4.36,2-13.29,3.48-21.34A16.9,16.9,0,0,1,477.44,202l.87.09C487.64,203.61,491.55,212.38,489.76,221.67Z" style="fill: #ffc8a3;"/>
      <path d="M463.63,248.26a21.1,21.1,0,0,0,12.11-2.11s-3.46,6.2-12.37,4.45Z" style="fill: #e4b18f;"/>
      <path d="M488.32,228.27c.16-.05,6.39-1.19,5.55,5s-6.84,4-6.83,3.85S488.32,228.27,488.32,228.27Z" style="fill: #ffc8a3;"/>
      <path d="M457.35,213.59a13.08,13.08,0,0,0,11.85-1.39c2.39-1.63,4.36-4.13,7.2-4.68a7.35,7.35,0,0,1,5.52,1.35,14.2,14.2,0,0,1,3.84,4.35c-2.22,4.4-1.59,9.64-.9,14.52a2.45,2.45,0,0,0,.57,1.5,2,2,0,0,0,2.51-.28,7.68,7.68,0,0,0,2.1-3.85,25.53,25.53,0,0,0,1-10,17.35,17.35,0,0,0-3.83-9.21,16.42,16.42,0,0,0-11-5.54,20.15,20.15,0,0,0-12.09,2.94,11.88,11.88,0,0,0-4.24,4" style="fill:#2b3b42"/>
      <path d="M457.89,222.12c.58-2.48.85-5.61,1.43-8.09a15.1,15.1,0,0,0,11.14-2.77c1.64-1.27,3.06-3,5.05-3.56,2.57-.74,5.23.61,7.56,1.92l-.09-.11a11.35,11.35,0,0,1,3,3.1,35.26,35.26,0,0,0-1.13,15,2.57,2.57,0,0,0,1.17,1.85c1.27.77,2.22-.1,3.18-.69.7-.44,1.7-.72,2.3-.15a35,35,0,0,0,4.06-10,2.52,2.52,0,0,0,4.44,2.22,5.31,5.31,0,0,1-1.22-2.52,3.26,3.26,0,0,0,4.65-.37l-1.95-2,2.78.15a14.85,14.85,0,0,1-5.28-4.57,22.94,22.94,0,0,0-4.91-5c-2-1.28-4.64-1.8-6.68-.62.14-3.25-2.19-6.26-5.14-7.63a21.08,21.08,0,0,0-11.18-1.11c-2.46.52-5,2-8.21,4.31a29.94,29.94,0,0,0-4.26,3.68c-1.94,2.05-5.81,5.41-9.52,4.41l.33,3.82c2,1.91,6.13.23,6.13.23s-2.38,2.37-4.61,2.31l.6,3.28s3.37.59,4.85-2Z" style="fill:#2b3b42"/>
      <path d="M496.9,203.52a9.88,9.88,0,0,1-1.54-.21,10.3,10.3,0,0,0-3.65.22,10.43,10.43,0,0,0-3.34,1.51c-.77.54-1.2,1-1.26.91a3.55,3.55,0,0,1,1.05-1.19,8.85,8.85,0,0,1,3.43-1.71,8.57,8.57,0,0,1,3.82-.08A3.48,3.48,0,0,1,496.9,203.52Z" style="fill:#455a64"/>
      <path d="M488.54,198.17a7.79,7.79,0,0,1-1.28,8.19,19.1,19.1,0,0,0,1.33-4A18.49,18.49,0,0,0,488.54,198.17Z" style="fill:#455a64"/>
      <path d="M629.62,408.06,646,398.78s14.93,13.53,18.13,12.11L647.27,378.5l-26.11,13.41Z" style="fill: #5e5e5e;"/>
      <g style="opacity: 1;">
        <path d="M647.27,378.5,644.69,380l17.12,30.52s1.38,1.11,2.31.42Z" style="fill: #4b4b4b;"/>
      </g>
      <path d="M646.1,399.39c.16-.08-.18-.91-.08-1.95s.55-1.81.42-1.92-.93.6-1,1.86S646,399.5,646.1,399.39Z" style="fill:#2b3b42"/>
      <path d="M649.28,402.06c.17,0,.08-.87.47-1.75s1-1.41.93-1.56-1,.21-1.5,1.32S649.12,402.14,649.28,402.06Z" style="fill:#2b3b42"/>
      <path d="M654.34,401.88c0-.17-.94,0-1.6.88s-.61,1.78-.44,1.78.39-.7.94-1.4S654.41,402,654.34,401.88Z" style="fill:#2b3b42"/>
      <path d="M642.14,401.1c.11-.15-.49-.76-.89-1.68s-.49-1.77-.67-1.78-.39.95.1,2S642.05,401.24,642.14,401.1Z" style="fill:#2b3b42"/>
      <g style="opacity:0.2">
        <polygon points="632.86 406.22 635.78 404.57 627.36 388.73 624.67 390.1 632.86 406.22"/>
      </g>
      <path d="M638.8,402.91c.07,0-.16-.71-.85-1.62a8.55,8.55,0,0,0-1.41-1.43,8.39,8.39,0,0,0-1-.67,2.05,2.05,0,0,0-.63-.29.78.78,0,0,0-.88.36,1,1,0,0,0,0,.88,2.13,2.13,0,0,0,.4.57,6.77,6.77,0,0,0,.87.83,6.29,6.29,0,0,0,1.76,1,3,3,0,0,0,1.81.27c0-.1-.67-.21-1.64-.67a7.77,7.77,0,0,1-1.57-1,7.11,7.11,0,0,1-.77-.78c-.27-.29-.42-.58-.32-.75s.07-.08.2-.06a2.07,2.07,0,0,1,.47.21,9.52,9.52,0,0,1,.94.61,10.71,10.71,0,0,1,1.41,1.25C638.35,402.37,638.71,403,638.8,402.91Z" style="fill:#2b3b42"/>
      <path d="M638.92,402.58a2.87,2.87,0,0,0-1.79.39,6.1,6.1,0,0,0-1.66,1.14,6,6,0,0,0-.77.93,1.51,1.51,0,0,0-.28,1.46.84.84,0,0,0,.8.44,2.15,2.15,0,0,0,.68-.14,4.19,4.19,0,0,0,2.41-2.13,2.37,2.37,0,0,0,.3-1.81c-.11,0-.13.69-.68,1.6a4.28,4.28,0,0,1-1.26,1.3,3.64,3.64,0,0,1-.95.46c-.37.13-.72.15-.75,0a1,1,0,0,1,.24-.85,5.71,5.71,0,0,1,.67-.85,6.57,6.57,0,0,1,1.45-1.16C638.26,402.82,638.94,402.68,638.92,402.58Z" style="fill:#2b3b42"/>
      <path d="M583,433.57l18.57-3.05s9.34,17.86,12.82,17.63l-4.61-36.22-29.13,3.56Z" style="fill: #5e5e5e;"/>
      <g style="opacity: 1;">
        <path d="M609.74,411.93l-2.92.47L612.33,447s.91,1.52,2,1.2Z" style="fill: #4b4b4b;"/>
      </g>
      <path d="M601.42,431.14c.18,0,.15-.93.6-1.87s1.15-1.5,1.06-1.66-1.08.24-1.62,1.4S601.27,431.19,601.42,431.14Z" style="fill:#2b3b42"/>
      <path d="M603.48,434.73c.18,0,.38-.78,1-1.48s1.44-1,1.41-1.14-1-.16-1.86.72S603.31,434.75,603.48,434.73Z" style="fill:#2b3b42"/>
      <path d="M608.3,436.31c0-.16-.9-.3-1.81.28s-1.19,1.45-1,1.51.61-.52,1.36-1S608.31,436.49,608.3,436.31Z" style="fill:#2b3b42"/>
      <path d="M597.11,431.36c.16-.09-.19-.87-.25-1.88s.16-1.83,0-1.9-.7.75-.61,1.94S597,431.46,597.11,431.36Z" style="fill:#2b3b42"/>
      <g style="opacity:0.2">
        <polygon points="586.64 432.96 589.95 432.43 587.52 414.65 584.52 415 586.64 432.96"/>
      </g>
      <path d="M593.36,431.91a3.55,3.55,0,0,0-.24-1.82,8.62,8.62,0,0,0-.83-1.82,9.53,9.53,0,0,0-.68-1,2.33,2.33,0,0,0-.5-.49.77.77,0,0,0-1,0,1,1,0,0,0-.31.83,2.7,2.7,0,0,0,.18.67,6.78,6.78,0,0,0,.53,1.08,6.85,6.85,0,0,0,1.31,1.53,3.16,3.16,0,0,0,1.61.88c0-.09-.55-.43-1.31-1.2a7.49,7.49,0,0,1-1.11-1.5,7.06,7.06,0,0,1-.46-1c-.15-.37-.19-.7,0-.82s.08-.05.21,0a2.13,2.13,0,0,1,.36.37,9,9,0,0,1,.67.89,10.16,10.16,0,0,1,.89,1.66A13.45,13.45,0,0,0,593.36,431.91Z" style="fill:#2b3b42"/>
      <path d="M593.58,431.64a3,3,0,0,0-1.81-.25,6,6,0,0,0-2,.5,6.48,6.48,0,0,0-1,.6,1.52,1.52,0,0,0-.77,1.27.85.85,0,0,0,.6.7,2.61,2.61,0,0,0,.69.1,4.41,4.41,0,0,0,1.23-.15,4.26,4.26,0,0,0,1.77-1c.85-.83,1-1.59.9-1.6s-.35.61-1.19,1.27a4.14,4.14,0,0,1-1.63.79,3.64,3.64,0,0,1-1,.1c-.39,0-.72-.11-.7-.26s.22-.52.51-.71a5.41,5.41,0,0,1,.93-.57,6.87,6.87,0,0,1,1.76-.59C592.88,431.64,593.57,431.74,593.58,431.64Z" style="fill:#2b3b42"/>
      <path d="M506.73,333.38c-.58.23,8.79,9.25,10.3,15.36,1.81,7.37,6.75,15.8,6.75,15.8L558.4,397.7l65.2-9.54,11,20.09L556,429.56a14.3,14.3,0,0,1-12.27-2.32L493,389.54l-29.08-36Z" style="fill:#2b3b42"/>
      <path d="M459.1,356.28l4.2,15.44c11.78,24.34,34.22,70.43,40.16,73.4,8.26,4.13,84.23-11,84.23-11L586,413.18l-63.75,5.51-42.64-74.91Z" style="fill:#2b3b42"/>
      <path d="M572.44,292.87s-45.33-17-48.08-19.46-14.72-16-19.7-17.75c0,0-8.08-2.12-13.58-1.81l-5.81.69v-4.41l-23.87.39-.66,5.88-4.07,1.54s-9.56,20-9.56,29.12-4.72,62.51,4.58,72.77c1.43,1.57,7,.56,7,.56s26.84-2.86,53.52-21.52l-9.77-11.29S499,304,503,287.06c.09-.37.17-.74.26-1.1,11.55,5.7,29.33,14,34.55,14,0,0,29.24,9.87,34.64,3.55C573.06,302.8,572.44,292.87,572.44,292.87Z" style="fill: #515e64;"/>
      <path d="M461.31,257.06s-9.35.37-15.44,7.94-16,39.86-16,39.86l-13.64-14-13,7.21s18.38,25.62,22,28.59a19.4,19.4,0,0,0,6.64,2.83c8.73.76,14.63-8.13,16.42-15.46l6-30.13" style="fill: #515e64;"/>
      <path d="M407.18,295.85l-14-8.31s-4.23-10-2.61-10.47,3,5.57,3,5.57l2,1s-2.73-5.08-1.78-5.56,2.28,1,3,2.17c.56.88,2.37,4.57,2.37,4.57l.94-1.3-.74-3.41s-1-2.28.11-2.3,1.11-.1,1.94,1.79,1.4,3.3,1.4,3.3,4.08,2.42,4.95,2.15a5.11,5.11,0,0,1,4,.31s3.87,2,2.94,6.15" style="fill: #ffc8a3;"/>
      <path d="M501.88,258.37c.07,0-.3,1-.75,2.52a28,28,0,0,0-.69,12.47c.26,1.59.53,2.56.45,2.59a9.8,9.8,0,0,1-.8-2.52,23.79,23.79,0,0,1-.5-6.37,23.52,23.52,0,0,1,1.21-6.27A9.62,9.62,0,0,1,501.88,258.37Z" style="fill:#2b3b42"/>
      <path d="M464.41,257.13a9.38,9.38,0,0,1-.25-3.4,9.26,9.26,0,0,1,.52-3.37,16.54,16.54,0,0,1,0,3.39A16.77,16.77,0,0,1,464.41,257.13Z" style="fill:#2b3b42"/>
      <path d="M470,258a14.71,14.71,0,0,1,.08-3.82,15.59,15.59,0,0,1,.58-3.77,14.48,14.48,0,0,1-.09,3.82A15.31,15.31,0,0,1,470,258Z" style="fill:#2b3b42"/>
      <path d="M477.44,257.77c-.14,0,.21-1.67.34-3.7s0-3.69.18-3.71a12.36,12.36,0,0,1-.52,7.41Z" style="fill:#2b3b42"/>
      <path d="M482.9,256.4c-.14,0,.08-1.41.05-3.11s-.29-3.07-.15-3.1a5.91,5.91,0,0,1,.64,3.09A6.21,6.21,0,0,1,482.9,256.4Z" style="fill:#2b3b42"/>
      <path d="M447.6,269.28c.13,0,0,13.06-.3,29.16s-.66,29.16-.8,29.16,0-13.06.31-29.17S447.46,269.28,447.6,269.28Z" style="fill:#2b3b42"/>
      <path d="M587.36,289.11l-9.9,3.32-5,.44v10.66l5.14,1.75,13.79-.75s7.9,4,9.91,3.76,2-.86,2-.86l-9.77-5.91a5.6,5.6,0,0,1,3.76.5c2.25,1,6.14,3.26,7.52,2.64s1.13-1.13,1.13-1.13l-7.65-4.82s6.55,2.94,7.67,2.44a2,2,0,0,0,1.23-1.48l-4.26-3.79-6.4-5Z" style="fill: #ffc8a3;"/>
      <path d="M581.86,293.5a5.11,5.11,0,0,1,1.08.45c.67.31,1.64.78,2.83,1.38s2.6,1.31,4.15,2.19a3.51,3.51,0,0,1,1.11.88,2.63,2.63,0,0,1,.59,1.41,2.44,2.44,0,0,1-.34,1.56,2.29,2.29,0,0,1-1.38.89,4.63,4.63,0,0,1-2.19,0,15.81,15.81,0,0,1-1.91-.69c-1.2-.5-2.3-1-3.3-1.53l.26-.06a5.9,5.9,0,0,1-2.3,1.83,5.18,5.18,0,0,1-2.22.42,5.27,5.27,0,0,1-1.42-.24c-.31-.1-.47-.19-.46-.21a10.29,10.29,0,0,0,1.89.21,5.32,5.32,0,0,0,2.07-.49,5.77,5.77,0,0,0,2.11-1.77l.1-.14.15.08c1,.47,2.11,1,3.3,1.47a15.53,15.53,0,0,0,1.85.65,4.38,4.38,0,0,0,1.94,0,1.88,1.88,0,0,0,1.1-.69,2,2,0,0,0,.27-1.24,2.52,2.52,0,0,0-1.46-1.95c-1.5-.89-2.91-1.63-4.07-2.27l-2.76-1.52A5,5,0,0,1,581.86,293.5Z" style="fill:#e4b18f"/>
      <path d="M598.74,298.74a19.23,19.23,0,0,1-4.38-2.72,9.66,9.66,0,0,1-.89-.77l.3,0A6.21,6.21,0,0,1,591,296a2.18,2.18,0,0,1-1.14-.11c0-.07.42-.08,1.11-.2a7.45,7.45,0,0,0,2.58-.85l.17-.11.14.14c.25.24.55.48.85.73A45.21,45.21,0,0,1,598.74,298.74Z" style="fill:#e4b18f"/>
      <path d="M615.63,375.37a20.49,20.49,0,0,1-5.9-.85c-19-5.69-18-19.4-17.23-30.42.74-10.27.77-16.73-7.7-19.91-11.21-4.2-15.82-.12-22.81,6.06-8.32,7.36-18.66,16.52-43.76,12.8-13-1.93-34-8.8-59.71-30.58a205.29,205.29,0,0,1-25.33-25.4l3.88-3.12c.39.48,38.78,47.79,81.89,54.17,22.8,3.38,31.79-4.58,39.73-11.6,7.12-6.3,13.84-12.25,27.86-7,12.38,4.65,11.61,15.42,10.92,24.93-.8,11.13-1.49,20.74,13.69,25.29,17.1,5.12,39.59-22,53-38.16,4.8-5.77,8.13-9.95,10.79-12.12l3.76,3c-1.66,2-6.28,7-10.72,12.31C654.33,351.26,634.31,375.37,615.63,375.37Z" style="fill: #767676;"/>
      <path d="M437.6,288.17h0a5.75,5.75,0,0,1-8.12.39l-8.78-8,7.74-8.51,8.77,8A5.75,5.75,0,0,1,437.6,288.17Z" style="fill:#32c682"/>
      <path d="M437.6,288.17a14.17,14.17,0,0,0,.81-1.34,5.67,5.67,0,0,0,.27-4.17,5.6,5.6,0,0,0-1.59-2.47l-2.65-2.37c-1.87-1.7-3.95-3.57-6.16-5.56l.34,0-3.87,4.26-3.87,4.25v-.34L427,286l2.62,2.41a5.63,5.63,0,0,0,2.6,1.35,5.69,5.69,0,0,0,4.13-.67,13.42,13.42,0,0,0,1.26-.94,4.35,4.35,0,0,1-1.17,1.08,5.72,5.72,0,0,1-4.28.83,5.91,5.91,0,0,1-2.79-1.38c-.83-.74-1.71-1.54-2.65-2.37l-6.17-5.57-.18-.16.17-.18,3.86-4.26,3.87-4.24.16-.18.18.16,6.12,5.61,2.62,2.41a5.84,5.84,0,0,1,1.64,2.65,5.73,5.73,0,0,1-.42,4.33A4.18,4.18,0,0,1,437.6,288.17Z" style="fill:#2b3b42"/>
      <path d="M393.24,240.13,378.1,227.61a2.79,2.79,0,0,1-.37-3.93h0a2.79,2.79,0,0,1,3.93-.37l15.13,12.52Z" style="fill:#32c682"/>
      <path d="M379,258.42,363.88,245.9a2.79,2.79,0,0,1-.38-3.93h0a2.78,2.78,0,0,1,3.93-.37l15.14,12.51Z" style="fill:#32c682"/>
      <g style="opacity:0.6000000000000001">
        <path d="M393.24,240.13,378.1,227.61a2.79,2.79,0,0,1-.37-3.93h0a2.79,2.79,0,0,1,3.93-.37l15.13,12.52Z" style="fill:#fff"/>
      </g>
      <g style="opacity:0.6000000000000001">
        <path d="M379,258.42,363.88,245.9a2.79,2.79,0,0,1-.38-3.93h0a2.78,2.78,0,0,1,3.93-.37l15.14,12.51Z" style="fill:#fff"/>
      </g>
      <path d="M393.24,240.13a3,3,0,0,1,.23-.33l.68-.88,2.53-3.19,0,.21-7.11-5.78-4.45-3.66-2.39-2-1.23-1a2.46,2.46,0,0,0-1.33-.58,2.53,2.53,0,0,0-2.24.86,2.57,2.57,0,0,0-.54,2.28,2.36,2.36,0,0,0,.54,1,8.11,8.11,0,0,0,.91.82l1.88,1.56,6.48,5.45,4.39,3.74,1.2,1a4.06,4.06,0,0,1,.43.4,2.64,2.64,0,0,1-.42-.3l-1.2-1c-1.11-.89-2.63-2.1-4.47-3.59l-6.66-5.41-1.92-1.57a11,11,0,0,1-1-.87,3,3,0,0,1,2.67-5,3.12,3.12,0,0,1,1.59.69l1.22,1,2.38,2,4.43,3.69,7,5.89.12.1-.1.11-2.71,3.16-.72.8A1.77,1.77,0,0,1,393.24,240.13Z" style="fill:#2b3b42"/>
      <path d="M379,258.42a1.91,1.91,0,0,1,.24-.33c.18-.24.4-.53.68-.88l2.53-3.19,0,.21-7.11-5.79-4.45-3.65-2.39-2-1.23-1a2.62,2.62,0,0,0-1.34-.58,2.56,2.56,0,0,0-2.24.87,2.53,2.53,0,0,0-.53,2.28,2.4,2.4,0,0,0,.53,1,8.18,8.18,0,0,0,.92.81l1.87,1.57,6.49,5.45,4.39,3.74,1.2,1a2.63,2.63,0,0,1,.42.4s-.14-.09-.41-.3l-1.21-.95-4.47-3.59-6.65-5.41-1.92-1.58a8.57,8.57,0,0,1-1-.87,2.89,2.89,0,0,1-.64-1.24,3,3,0,0,1,.63-2.71,3.06,3.06,0,0,1,2.67-1,3.13,3.13,0,0,1,1.59.69c.41.35.82.68,1.23,1l2.38,2,4.43,3.68,7,5.9.11.1-.09.11c-1.14,1.31-2.05,2.37-2.72,3.15l-.71.81C379.1,258.34,379,258.43,379,258.42Z" style="fill:#2b3b42"/>
      <path d="M427.64,256l.4-.48a5.35,5.35,0,0,0-7.44-7.61l-22.16-18.46-25.35,30.33,22.68,18a5.35,5.35,0,0,0,1.09,7h0a5.34,5.34,0,0,0,7.44-.62,15.41,15.41,0,0,0,21.31-2.67l3.64-4.54A15.42,15.42,0,0,0,427.64,256Z" style="fill:#32c682"/>
      <path d="M427.64,256l.19.17.53.51a7.36,7.36,0,0,1,.81.88l.49.6.5.73a14.62,14.62,0,0,1,2,4.17,15.41,15.41,0,0,1-2.23,13.33c-.81,1.15-1.75,2.24-2.67,3.43a29.26,29.26,0,0,1-3.07,3.53,15.39,15.39,0,0,1-9.26,4.1,15.65,15.65,0,0,1-10.73-3.06l.31,0a5.64,5.64,0,0,1-3.65,1.89,5.54,5.54,0,0,1-4.11-1.24l0,0,0,0a5.6,5.6,0,0,1-1.14-7.32l.05.31L378.07,264l-5.13-4.08-.2-.15.16-.2c9.24-11,17.87-21.34,25.38-30.3l.14-.17.16.14,22.11,18.51h-.17a5.45,5.45,0,0,1,8.82,4.35,5.28,5.28,0,0,1-1,3,6.67,6.67,0,0,1-.52.63l-.19.21s.24-.3.65-.88a5.41,5.41,0,0,0,.9-3,5.28,5.28,0,0,0-2.23-4.29,5.13,5.13,0,0,0-3-1,5.23,5.23,0,0,0-3.31,1.13l-.09.07-.09-.07-22.2-18.4.3,0L373.28,259.9l0-.35,5.12,4.08,17.55,14,.17.13-.12.18a5.13,5.13,0,0,0,1,6.71h0a5.12,5.12,0,0,0,7.13-.59l.14-.15.16.12A15.24,15.24,0,0,0,423.9,283a29.82,29.82,0,0,0,3-3.48c.93-1.18,1.89-2.28,2.69-3.4a15.34,15.34,0,0,0,.42-17.23c-.17-.26-.33-.51-.49-.74l-.48-.6a9.2,9.2,0,0,0-.78-.92l-.51-.53Q427.63,256,427.64,256Z" style="fill:#2b3b42"/>
      <path d="M427.64,256a8.54,8.54,0,0,1-.84,1.18c-.56.75-1.39,1.81-2.43,3.11-2.07,2.61-5,6.16-8.27,10.05s-6.18,7.34-8.39,9.95l-2.54,3a8,8,0,0,1-1,1.06,8.54,8.54,0,0,1,.84-1.18c.56-.75,1.39-1.81,2.43-3.11,2.07-2.61,5-6.16,8.27-10l8.39-10,2.55-3A7.67,7.67,0,0,1,427.64,256Z" style="fill:#2b3b42"/>
      <path d="M420.6,247.87a8.39,8.39,0,0,1-.9,1.24c-.61.78-1.51,1.9-2.62,3.27-2.24,2.74-5.38,6.48-8.88,10.58s-6.64,7.74-9,10.49c-1.12,1.28-2,2.35-2.74,3.16a9.44,9.44,0,0,1-1.06,1.12,10.43,10.43,0,0,1,.91-1.24c.61-.78,1.5-1.9,2.62-3.27,2.24-2.74,5.38-6.48,8.88-10.58l9-10.48,2.74-3.17A10,10,0,0,1,420.6,247.87Z" style="fill:#2b3b42"/>
    </g>
    <g id="character-1-inject-156">
      <path d="M321,167.47c-.14.33-11.17,8.71-11.17,8.71l-.21,7.12,5.7.8,8.1-4.6,5.49-.28s3.35,1.77,4,2a1.94,1.94,0,0,0,2.25-.93l-5-3.64s5.54,3.09,6.07,2.68a1.72,1.72,0,0,0-.53-2.67s1.72.91,2.81.18.7-1.6.7-1.6l-7.32-6.57a5,5,0,0,0-3.41-1.28Z" style="fill:#ffc8a3"/>
      <path d="M321.88,170.56a4.81,4.81,0,0,1-.08.85c-.1.62-.22,1.4-.37,2.34l-.14-.17,4.21-.28a5.42,5.42,0,0,1,2.67.36,2.55,2.55,0,0,1,1.1,1.08,1.82,1.82,0,0,1,.07,1.63l0,.06-.06,0c-1.33.79-3,.61-4.45.71a5.17,5.17,0,0,0-3.1,1.13,20.47,20.47,0,0,0-2.31,2.24,10.36,10.36,0,0,1-2.3,1.94,5.15,5.15,0,0,1-2.54.71,10,10,0,0,1-3.68-.77,6.07,6.07,0,0,1-1.24-.57,8.36,8.36,0,0,1,1.31.38,10.61,10.61,0,0,0,3.6.61,4.91,4.91,0,0,0,2.34-.71,10.28,10.28,0,0,0,2.18-1.9,20.49,20.49,0,0,1,2.34-2.31,5.65,5.65,0,0,1,3.37-1.24c1.55-.09,3.09.05,4.24-.63l-.1.1a1.73,1.73,0,0,0-.94-2.1,4.92,4.92,0,0,0-2.45-.35l-4.22.16h-.18l0-.17c.2-.93.37-1.7.5-2.32A3.16,3.16,0,0,1,321.88,170.56Z" style="fill:#e4b18f"/>
      <path d="M336.05,176.8a5,5,0,0,1-1.88-1.11c-1.08-.83-2.26-2.28-3.87-3.45a2.73,2.73,0,0,0-1.24-.52c-.44-.05-.91,0-1.35,0h-2.35a9.82,9.82,0,0,1-2.16-.14,8.9,8.9,0,0,1,2.16-.21l2.34-.09a11,11,0,0,1,1.41,0,3,3,0,0,1,1.47.6,40.23,40.23,0,0,1,3.81,3.59C335.36,176.33,336.09,176.73,336.05,176.8Z" style="fill:#e4b18f"/>
      <path d="M336.56,388.47,336.29,406s17.69,6.15,17.95,9.39l-33.93.69-.7-27.27Z" style="fill:#32c682"/>
      <g style="opacity:0.6000000000000001">
        <path d="M320.31,416l0-2.75,32.53.37s1.52.62,1.37,1.69Z" style="fill:#fff"/>
      </g>
      <path d="M336.83,405.78c0,.16-.82.26-1.63.81s-1.22,1.25-1.38,1.19.08-1,1.06-1.67S336.87,405.63,336.83,405.78Z" style="fill:#2b3b42"/>
      <path d="M340.42,407.18c.05.16-.67.45-1.22,1.17s-.69,1.45-.86,1.45-.29-.94.41-1.81S340.42,407,340.42,407.18Z" style="fill:#2b3b42"/>
      <path d="M342.53,411.4c-.15,0-.39-.79,0-1.7s1.18-1.3,1.25-1.16-.4.63-.72,1.39S342.7,411.38,342.53,411.4Z" style="fill:#2b3b42"/>
      <path d="M336.45,401.79c-.06.15-.83-.07-1.76,0s-1.66.39-1.75.25.6-.75,1.7-.83S336.53,401.65,336.45,401.79Z" style="fill:#2b3b42"/>
      <g style="opacity:0.2">
        <polygon points="336.5 391.93 336.46 395.05 319.77 395.24 319.69 392.43 336.5 391.93"/>
      </g>
      <path d="M336.23,398.5a2.71,2.71,0,0,1-.48-1.64,5.49,5.49,0,0,1,.19-1.86,5.66,5.66,0,0,1,.42-1,1.38,1.38,0,0,1,1.06-.88.78.78,0,0,1,.72.46,2,2,0,0,1,.19.62,3.65,3.65,0,0,1,0,1.14,3.8,3.8,0,0,1-.69,1.77c-.64.9-1.33,1.11-1.34,1.05s.51-.41,1-1.27a4,4,0,0,0,.51-1.61,3.67,3.67,0,0,0-.06-1c-.06-.36-.2-.64-.33-.61s-.45.28-.59.57a6.68,6.68,0,0,0-.4.93,6,6,0,0,0-.29,1.71C336.13,397.85,336.32,398.47,336.23,398.5Z" style="fill:#2b3b42"/>
      <path d="M274.8,289.57c.83,1.25,37.67,39.47,37.67,39.47s-4.58,17.61-2.93,32.92,6.62,39.71,6.62,39.71l26.71-2.13-7.27-83L306.44,278Z" style="fill: #212d33;"/>
      <path d="M345.79,369.13l3.28,17.19s18.57,2.44,19.49,5.56l-33.1,7.55-6.2-26.57Z" style="fill:#32c682"/>
      <g style="opacity:0.6000000000000001">
        <path d="M335.46,399.43l-.52-2.7,31.93-6.23s1.62.3,1.69,1.38Z" style="fill:#fff"/>
      </g>
      <path d="M349.57,386c0,.16-.76.42-1.44,1.12s-.94,1.48-1.1,1.45-.14-1,.69-1.86S349.57,385.87,349.57,386Z" style="fill:#2b3b42"/>
      <path d="M353.37,386.67c.07.15-.57.59-1,1.39s-.39,1.57-.55,1.6-.47-.86,0-1.86S353.33,386.52,353.37,386.67Z" style="fill:#2b3b42"/>
      <path d="M356.29,390.38c-.14.07-.55-.69-.34-1.67s.89-1.5,1-1.39-.26.7-.42,1.51S356.44,390.32,356.29,390.38Z" style="fill:#2b3b42"/>
      <path d="M348.39,382.2c0,.16-.83.1-1.73.38s-1.54.72-1.66.6.44-.86,1.5-1.16S348.44,382.05,348.39,382.2Z" style="fill:#2b3b42"/>
      <path d="M208.9,263.42s-2.47,15.81,7.11,26.15,19.91,14.89,38.11,14.07,57.49.09,57.49.09,1.66,21,6.21,38.17,13.63,43,13.63,43l17.8-1.7s-4.81-93.58-6.05-101.85-15-12.46-22.49-14.94-50.16-11.05-50.16-11.05l-38.77-5.44Z" style="fill: #2b3b42;"/>
      <path d="M246.39,168.49c1.31.65,28.62,17.35,29.92,17.35s33.61-11.79,33.61-11.79l6.62,10.22s-28.33,21.82-37.61,22.14-24-7.13-24-7.13Z" style="fill: #515e64;"/>
      <path d="M189.57,177.66S155.58,212.22,156,221s4.64,13.63,7.34,14.77c3.77,1.6,46.33-3.64,46.33-3.64l2.52-16.56c-7-1.39-15.87-2.44-25.48-3.36,4.31-4.51,9.1-7.93,15-8.93l10.18-11.07S199.17,175.5,189.57,177.66Z" style="fill: #515e64;"/>
      <path d="M187.81,188s-1.63-7.46,2-10.45c6-5,11.12-7.27,15.48-9.44,5-2.49,10.29-5.37,10.29-5.37l30.85,5.74s16.47,26.3,16.12,32.77a17.17,17.17,0,0,1-4.45,10.54,39.77,39.77,0,0,0,2.25,21.1c3.69,9.17,10.24,22.42,10.24,22.42s-35.36-5.74-52.13,2.47c-9,4.4-9.81,11.41-9.81,11.41l-1.31-38.52h0l-6.93-23.59Z" style="fill: #515e64;"/>
      <path d="M211.18,215.36s-.16-.06-.47-.12-.76-.15-1.36-.24c-1.2-.18-2.93-.39-5.08-.64-4.3-.49-10.25-1.09-16.82-1.72l-1.13-.11-.61-.06.48-.38c2.49-2,4.83-3.84,7-5.53a17.54,17.54,0,0,1,6.65-2.93,17,17,0,0,1,4.87-.32,12.22,12.22,0,0,1,1.31.18,1.53,1.53,0,0,1,.44.11,21.08,21.08,0,0,0-6.55.36,17.55,17.55,0,0,0-6.45,3l-7,5.56-.13-.44,1.14.11c6.57.63,12.52,1.29,16.81,1.87S211.25,215.14,211.18,215.36Z" style="fill:#2b3b42"/>
      <path d="M174.66,213a4,4,0,0,1,1.38-1.22,8.88,8.88,0,0,1,4.25-1.35,8.62,8.62,0,0,1,4.36.91,4,4,0,0,1,1.5,1.07c-.05.07-.62-.33-1.65-.76a9.78,9.78,0,0,0-4.19-.73,9.68,9.68,0,0,0-4.09,1.16C175.25,212.57,174.71,213,174.66,213Z" style="fill:#2b3b42"/>
      <path d="M257.13,212.79s.41-.46,1.08-1.34a15.59,15.59,0,0,0,2.29-4,16.82,16.82,0,0,0,1.18-6.73,15.74,15.74,0,0,0-2.45-7.94,60.9,60.9,0,0,0-5.17-6.73,30.89,30.89,0,0,1-3.95-5.78,14,14,0,0,1-1.45-4.49,8.42,8.42,0,0,1-.08-1.28,1.34,1.34,0,0,1,0-.45s0,.62.24,1.7a14.84,14.84,0,0,0,1.57,4.36,31.4,31.4,0,0,0,4,5.65,57.66,57.66,0,0,1,5.24,6.76,15.94,15.94,0,0,1,2.48,8.19,16.6,16.6,0,0,1-1.31,6.87,14.66,14.66,0,0,1-2.46,4,8.33,8.33,0,0,1-.89.93A1.71,1.71,0,0,1,257.13,212.79Z" style="fill:#2b3b42"/>
      <g style="opacity:0.2">
        <path d="M203.38,214a4.62,4.62,0,0,1,2.83-5.63,24.11,24.11,0,0,1,3.72-.48c.78-.13,1.65-.52,1.81-1.3.2-1-.81-1.72-1.71-2.11a15.75,15.75,0,0,0-11.67-.28,18.53,18.53,0,0,1,3.65,9.66"/>
      </g>
      <g style="opacity:0.2">
        <path d="M250.14,179.76c-1.59-3.19,4.18,5.77,6.87,8.11a59.34,59.34,0,0,1,7.76,7.35c2.23,2.78,3.88,5.86,3.57,9.42l-6.42-2.26s.81-5.19-2-9S250.78,181,250.14,179.76Z"/>
      </g>
      <g style="opacity: 0.2;">
        <path d="M186.21,212c-1.77-1.92-4.48-2.7-7.08-3a10.88,10.88,0,0,0-4.72.31,5.08,5.08,0,0,0-3.32,3.17,1.52,1.52,0,0,0,.12,1.38,1.33,1.33,0,0,0,1.46.34,5.1,5.1,0,0,0,1.37-.84A12.17,12.17,0,0,1,186,212.09"/>
      </g>
      <path d="M182.78,324.93a60.52,60.52,0,0,1-12.93-1.4c-8.82-1.94-15.73-4.79-21-8.69a66.76,66.76,0,0,1-20.45,3.71c-22.68.61-43.21-6.48-68.38-26.85q-1.9-4.06-3.66-8.59c24.23,19.61,50.46,31,71.91,30.46A62.52,62.52,0,0,0,144.44,311c-5.85-6.1-8.8-14.07-8.76-23.75,0-10.61,4.56-15.42,8.34-17.58,5.35-3.07,12.67-2.65,19.09,1.09,7.08,4.13,11.29,11.11,11.26,18.68a20.52,20.52,0,0,1-8.08,16,61.48,61.48,0,0,1-11.89,7.15A59.18,59.18,0,0,0,194,318.83c21.31-4.23,39.11-11.79,52.9-22.47a85.91,85.91,0,0,0,33.52-70.76v-.09c-1.23-24.65-15.62-48.73-36.68-61.35-18.26-10.95-41.66-13.95-65.88-8.45-15.05,3.42-35.53,11.53-47.6,30.76-13,20.72-9.48,46.43,1.25,58.38,7.65,8.53,22.31,5.45,34.1,3l3.88-.8c12.67-2.52,64.08-26.63,64.28-26.7l1.09,4.1c-.83.29-51.38,24.9-64.4,27.49-1.24.24-2.52.51-3.83.79-13,2.73-29.26,6.13-38.83-4.53-6.92-7.72-10.77-18.86-10.84-31.37a63,63,0,0,1,9.08-33c13-20.67,34.75-29.34,50.72-33,25.47-5.78,50.17-2.58,69.54,9C268.7,173.33,284,199,285.36,225.22c.11,1.34,1.45,20.46-8.78,42.1a90.28,90.28,0,0,1-26.66,33c-14.41,11.16-32.9,19-55,23.42A62.06,62.06,0,0,1,182.78,324.93Zm-30.71-52.31a11.19,11.19,0,0,0-5.58,1.39c-3.79,2.17-5.8,6.76-5.83,13.28,0,9.33,2.89,16.54,9,21.9a56.75,56.75,0,0,0,13.56-7.7,15.54,15.54,0,0,0,6.15-12.05c0-5.77-3.26-11.13-8.79-14.35A17.13,17.13,0,0,0,152.07,272.62Z" style="fill: #767676;"/>
      <path d="M248,142.1c-1.19,1.9-.17,4.41,1.16,6.21s3,3.53,3.3,5.75c.35,3.05-2.23,5.72-5,7a5.39,5.39,0,0,0-2.36,1.47c-.78,1.08-.46,2.56-.49,3.89a6.45,6.45,0,0,1-3.32,5.57,5.38,5.38,0,0,1-6.27-1,7.73,7.73,0,0,1-1.62-3.6,16.37,16.37,0,0,1,3.57-14.18c1.69-1.86,3.82-3.26,5.67-5s3.46-3.9,3.62-6.41" style="fill:#2b3b42"/>
      <path d="M247.66,119.34c-1.39-3.58-5-5.79-8.66-7.06a24.5,24.5,0,0,0-16.25-.35c-7.62,2.76-12.74,9.86-16.68,16.94-1.71,3.08-3.63,6.52-7,7.55-1.8.54-3.73.29-5.6.5a11.49,11.49,0,0,0-7.48,4c-2.24,2.72-3.4,6.63-6.62,8.06-2.08.92-4.47.53-6.74.6-4.73.15-9.71,3-10.75,7.61-.69,3,.35,6.38-1,9.13-.5,1-1.3,1.84-1.78,2.85a5.19,5.19,0,0,0,7.55,6.55,13.58,13.58,0,0,1,2.07-1.42c1.64-.69,3.51.22,4.94,1.28s2.84,2.36,4.61,2.56c3.62.4,6.43-4,10.07-3.72,2,.14,3.65,1.67,5.4,2.72,3.06,1.84,4.6.19,7.19-2.26s4,7.87,10,5.18c5.58-2.52.06-12.07,2.1-11.85s7.4-.11,8.54-1.82" style="fill:#2b3b42"/>
      <path d="M248.36,130a13.58,13.58,0,0,0-1.58-12.31,17.78,17.78,0,0,0-7.64-5.82,19.11,19.11,0,0,0-12.75-1.18c-4.18,1.22-7.85,4.57-8.78,8.82-.42,1.93-.3,4-1.14,5.79a4.31,4.31,0,0,0-.78,2.41,2,2,0,0,0,1.6,1.54,4.48,4.48,0,0,0,2.32-.2,24.41,24.41,0,0,0,7-3.89" style="fill:#2b3b42"/>
      <path d="M234.45,167.7c.47-3.69.64-5.2.64-5.17s7.93-.41,10.69-10.38c1.38-5,2.06-13.27,2.41-20.09.3-6.13-2.89-14.07-9-14.11l-19.5,2.64a3.59,3.59,0,0,0-3.61,3.26L213,168.25s8.8,10.42,16.44,9S234.45,167.7,234.45,167.7Z" style="fill: #FFC8A3;"/>
      <path d="M235.09,162.53a25.94,25.94,0,0,1-13.19-5.17s2.62,7.42,12.89,7.62Z" style="fill: #e4b18f;"/>
      <path d="M217,141.19c.08-.76-.59-2.64-1.32-2.84-2-.54-5.58-.79-6.18,4.28-.84,6.91,6.28,6.32,6.32,6.13S216.71,143.8,217,141.19Z" style="fill: #ffc8a3;"/>
      <path d="M240.25,116.86a9.52,9.52,0,0,1-7.11,6.64c-1.79.37-3.9.31-5.07,1.71s-.79,3.7-1.92,5.18c-1.57,2.06-5.27,1.6-6.52,3.86-.54,1-.42,2.24-1,3.22a3.23,3.23,0,0,1-4,1.13,5.16,5.16,0,0,1-2.73-3.4,14,14,0,0,1-.33-4.47,24.73,24.73,0,0,1,1.55-8.68c2.42-5.7,11.71-13,17.82-12" style="fill:#2b3b42"/>
      <path d="M247.22,144.17c1.58-1.87,3.08-4,4.67-5.83s3.05-3.68,3.24-6a9.67,9.67,0,0,0-1.69-5.52,69.38,69.38,0,0,0-6.59-9A9,9,0,0,0,245,116a4.48,4.48,0,0,0-2.09-.7,2.52,2.52,0,0,0-1.74.42,1.39,1.39,0,0,0-.51,1.61,2.65,2.65,0,0,0,1.32,1c2.88,1.47,4.73,4.48,5.55,7.61s.59,6.15.52,9.39c-.06,2.53-.4,5.22-.66,7.55" style="fill:#2b3b42"/>
      <path d="M231,110.25a21,21,0,0,0-19.19,8.08c-2.41,3.24-4.19,7.46-8,8.82-3.11,1.11-6.6-.13-9.86.45a9.12,9.12,0,0,0-6.69,5.3c-.93,2.18-1,4.8-2.67,6.52-2.14,2.27-6,2-8.23,4.25-1.8,1.84-1.86,4.8-1.14,7.28a4.08,4.08,0,0,0,1.7,2.61,4.18,4.18,0,0,0,2.73.21,31,31,0,0,0,8.92-3.53c6.37-3.42,12.5-7.27,18.63-11.11a38.16,38.16,0,0,0,8-6.07c3-3.26,4.75-7.43,6.85-11.34s4.79-7.77,8.81-9.62" style="fill:#2b3b42"/>
      <path d="M205.91,228.18s-1.15-1.25-.77-2.41,1.06-2,1.35-1.92.19-6.26,1.35-6.74a16.6,16.6,0,0,1,2.5-.77s1.35-3.46,2.12-3.37,9.33,1.64,9.33,1.64,6.74,7.22,6.35,7.89-.77,1.44-1.83,1.06a12,12,0,0,1-2.07-1.06l3.59,3.93s-.69,3-3.63.88l1.44,1.83s-.87,3.76-5.1.58l-4.33-2.6h-2.79l6.35,3.88s.67,1.91-1.25,1.9-6.76-2.56-6.76-2.56-2.88,1.7-3.85,1.7-1.23-1.07-1.23-1.07Z" style="fill:#ffc8a3"/>
      <path d="M224.36,227.52a16.61,16.61,0,0,1-1.49-1.28,32.34,32.34,0,0,1-3.52-3.19,3,3,0,0,0-2.16-1,14.63,14.63,0,0,0-2.09.13,3.93,3.93,0,0,1-2-.09c0-.07.75,0,1.93-.25a11.37,11.37,0,0,1,2.16-.25,3.68,3.68,0,0,1,1.31.26,3.31,3.31,0,0,1,1.18.82c1.23,1.38,2.53,2.41,3.4,3.29A5.14,5.14,0,0,1,224.36,227.52Z" style="fill:#e4b18f"/>
      <path d="M227.83,226.43a12.11,12.11,0,0,1-1.75-1.71c-1.05-1.09-2.5-2.59-4.14-4.2-.83-.79-1.6-1.6-2.35-2.19a4.34,4.34,0,0,0-2.35-.85c-1.48-.1-2.42,0-2.43,0a2,2,0,0,1,.64-.17,10.28,10.28,0,0,1,1.81-.13,4.59,4.59,0,0,1,2.6.83,30.21,30.21,0,0,1,2.43,2.21c1.65,1.62,3.06,3.16,4,4.31A11.23,11.23,0,0,1,227.83,226.43Z" style="fill:#e4b18f"/>
      <path d="M304.68,227.28l-8.89-45.7a3.43,3.43,0,0,0-6.73,1.31l.41,2.08-18.39,4.52a12.27,12.27,0,0,0-8.59,7.67l-11.09,2.73a7.17,7.17,0,0,0-5.25,8.67l1,4-10.85,2.68A5.62,5.62,0,1,0,239,226.19l10.86-2.67.77,3.13a7.17,7.17,0,0,0,8.67,5.25l11.29-2.78,0-.09a12.26,12.26,0,0,0,10.89,2.59l16.32-4,.19,1a3.43,3.43,0,0,0,6.73-1.31Z" style="fill:#32c682"/>
      <path d="M304.68,227.28a2.51,2.51,0,0,1,.09.77,3.43,3.43,0,0,1-.78,2.12,3.53,3.53,0,0,1-3.38,1.2A3.5,3.5,0,0,1,298,229c-.13-.44-.19-.89-.29-1.35l.13.08-12,3-3.59.9a13.89,13.89,0,0,1-3.91.54,12.48,12.48,0,0,1-7.88-3l.3-.19,0,.08.05.19-.19,0c-3.81.93-7.8,2-12.09,2.95a7.41,7.41,0,0,1-6.27-2.2,7.26,7.26,0,0,1-1.77-3.05c-.31-1.14-.57-2.28-.86-3.43l.27.17L240.74,226c-.79.17-1.54.41-2.39.54a5.86,5.86,0,0,1-5.77-8.77,6.17,6.17,0,0,1,4.29-2.89l10.22-2.51-.18.29c-.2-.83-.41-1.69-.63-2.56a16.7,16.7,0,0,1-.55-2.73,7.4,7.4,0,0,1,1.69-5.26,7.33,7.33,0,0,1,2.15-1.77,9.8,9.8,0,0,1,2.6-.9l10.26-2.52-.16.15a12.64,12.64,0,0,1,5.17-6.31,12.78,12.78,0,0,1,3.74-1.53l3.8-.94,14.44-3.53-.16.25c-.11-.54-.21-1.09-.32-1.63a4.53,4.53,0,0,1-.11-1.69A3.63,3.63,0,0,1,294,179a3.58,3.58,0,0,1,2,2.45l2.19,11.31c1.36,7.1,2.55,13.3,3.53,18.43s1.73,9.13,2.26,11.9c.25,1.36.44,2.41.57,3.14.06.35.11.61.14.81a1.44,1.44,0,0,1,0,.28,1.23,1.23,0,0,1-.07-.27c0-.2-.1-.46-.17-.8l-.65-3.14c-.55-2.76-1.35-6.78-2.37-11.87s-2.23-11.32-3.63-18.41q-1.05-5.32-2.23-11.29a3.2,3.2,0,0,0-1.76-2.17,3.2,3.2,0,0,0-4.54,2.42,3.91,3.91,0,0,0,.1,1.55c.11.54.22,1.08.32,1.63l0,.2-.2.05-14.43,3.57c-2.49.69-5.17,1-7.4,2.41a12.19,12.19,0,0,0-5,6.08l-.05.12-.12,0-10.26,2.53a9.2,9.2,0,0,0-2.48.85,7,7,0,0,0-2,1.65,6.88,6.88,0,0,0-1.58,4.91,15.58,15.58,0,0,0,.54,2.65c.21.88.43,1.74.63,2.57l.06.23-.24.06L237,215.36a5.61,5.61,0,0,0-4,2.66,5.37,5.37,0,0,0,5.29,8c.76-.1,1.56-.35,2.34-.53l9.15-2.24.22-.05.05.21c.29,1.15.55,2.31.85,3.42a6.84,6.84,0,0,0,1.66,2.87,7,7,0,0,0,5.9,2.09c4.21-.94,8.27-2,12.06-2.91l-.13.23,0-.08-.14-.57.44.38a12.1,12.1,0,0,0,7.65,2.91,13.45,13.45,0,0,0,3.82-.52l3.59-.87,12-2.91.11,0,0,.11c.1.46.16.93.28,1.34a3.27,3.27,0,0,0,.58,1.11,3.47,3.47,0,0,0,1.91,1.18,3.39,3.39,0,0,0,4.07-3.16A7.52,7.52,0,0,0,304.68,227.28Z" style="fill:#2b3b42"/>
      <path d="M298.16,227.52c-.13,0-2.27-9.46-4.78-21.18s-4.45-21.26-4.31-21.29,2.27,9.45,4.79,21.18S298.3,227.49,298.16,227.52Z" style="fill:#2b3b42"/>
      <path d="M270.55,229c-.13,0-2-7.09-4.26-15.9s-3.91-16-3.78-16,2,7.09,4.26,15.92S270.68,229,270.55,229Z" style="fill:#2b3b42"/>
      <path d="M249.84,223.52a24.76,24.76,0,0,1-1.59-5.4,46.12,46.12,0,0,1-1.1-5.52,25.08,25.08,0,0,1,1.58,5.41A47.14,47.14,0,0,1,249.84,223.52Z" style="fill:#2b3b42"/>
    </g>
    <!--<g id="Lines-inject-156">
      <path d="M439.18,173.14a.74.74,0,0,1-.18.12l-.57.31-2.21,1.15-8.2,4.19L400.5,192.77l-.18.1-.13-.17c-.76-1.09-1.57-2.24-2.4-3.4l-3.41-4.84.32.07-25.65,14.81-7.64,4.36-2.08,1.15c-.22.12-.39.22-.54.29s-.19.1-.19.09,0,0,.17-.13l.52-.33,2-1.23,7.57-4.48,25.56-14.95.19-.12.13.19c1.1,1.54,2.25,3.18,3.43,4.83.82,1.17,1.63,2.32,2.4,3.4l-.31-.08,27.58-13.72,8.27-4.05,2.25-1.08.58-.26Z" style="fill: #32c682;"/>
      <path d="M431.89,209.26a2.76,2.76,0,0,1-.54.15l-1.58.35L423.91,211l-19.61,3.8-.24.05,0-.24-.44-2.43c-.09-.55-.19-1.1-.28-1.6l.28.2c-7.95,1.36-15,3-20,4.36-2.53.66-4.55,1.23-6,1.62l-1.61.45a2.73,2.73,0,0,1-.57.12,3,3,0,0,1,.54-.22l1.58-.53c1.39-.45,3.4-1.07,5.92-1.77a202.62,202.62,0,0,1,20.05-4.52l.24,0,0,.24c.09.51.19,1.06.29,1.6.15.84.29,1.66.43,2.43l-.29-.2,19.64-3.65,5.88-1,1.6-.26A2,2,0,0,1,431.89,209.26Z" style="fill: #32c682;"/>
      <path d="M364.85,174.55c.12.06-2.42,5.56-5.69,12.28s-6,12.12-6.13,12.06,2.43-5.55,5.69-12.28S364.73,174.49,364.85,174.55Z" style="fill: #32c682;"/>
      <path d="M394.71,201.51c0,.13-6.29,2.09-14.13,4.38s-14.24,4-14.27,3.91,6.28-2.09,14.13-4.38S394.67,201.38,394.71,201.51Z" style="fill: #32c682;"/>
      <path d="M345.77,157.34a5.27,5.27,0,0,1,.41,1c.26.74.6,1.72,1,2.92.87,2.58,2.05,6.14,3.45,10.33l.1.3h-.32l-7.81-.16.25-.29c.18,1,.38,2,.58,3.11,1.28,7,2.43,13.42,3.29,18.12.39,2.27.71,4.13.94,5.5.09.6.17,1.1.23,1.5a1.91,1.91,0,0,1,.05.53,2.07,2.07,0,0,1-.15-.51c-.08-.4-.19-.89-.32-1.49l-1.09-5.47c-.89-4.69-2.1-11.06-3.44-18.1-.19-1.06-.39-2.1-.57-3.1l-.06-.29h.3l7.81.2-.21.3-3.28-10.39c-.37-1.22-.67-2.21-.89-3A8.13,8.13,0,0,1,345.77,157.34Z" style="fill: #32c682;"/>
      <path d="M311.24,232.69c-.06-.12,5-2.62,11.33-5.58s11.48-5.26,11.54-5.14-5,2.63-11.33,5.59S311.3,232.81,311.24,232.69Z" style="fill: #32c682;"/>
      <path d="M334.82,239.94a50.2,50.2,0,0,1,4.32-5.58,53.08,53.08,0,0,1,4.71-5.26,48.61,48.61,0,0,1-4.33,5.58A51,51,0,0,1,334.82,239.94Z" style="fill: #32c682;"/>
      <path d="M347.53,274.28c-.13,0,.73-9.75,1.94-21.75s2.29-21.72,2.43-21.7-.74,9.75-1.94,21.75S347.67,274.29,347.53,274.28Z" style="fill: #32c682;"/>
      <path d="M330.18,188.12a22.4,22.4,0,0,1,2.31,4.09,21.86,21.86,0,0,1,1.86,4.31,22.73,22.73,0,0,1-2.3-4.09A22.78,22.78,0,0,1,330.18,188.12Z" style="fill: #32c682;"/>
    </g>-->
  </g>
</svg>
